<svg width="45" height="45" viewBox="0 0 45 45" fill="none" xmlns="http://www.w3.org/2000/svg">
<path d="M20.2915 15.875H24.7082V11.4584H20.2915M22.4998 40.1667C12.7611 40.1667 4.83317 32.2388 4.83317 22.5C4.83317 12.7613 12.7611 4.83335 22.4998 4.83335C32.2386 4.83335 40.1665 12.7613 40.1665 22.5C40.1665 32.2388 32.2386 40.1667 22.4998 40.1667ZM22.4998 0.416687C19.5998 0.416687 16.7282 0.987889 14.0489 2.09768C11.3696 3.20747 8.93519 4.83412 6.88456 6.88475C2.74313 11.0262 0.416504 16.6432 0.416504 22.5C0.416504 28.3569 2.74313 33.9739 6.88456 38.1153C8.93519 40.1659 11.3696 41.7926 14.0489 42.9024C16.7282 44.0122 19.5998 44.5834 22.4998 44.5834C28.3567 44.5834 33.9737 42.2567 38.1151 38.1153C42.2565 33.9739 44.5832 28.3569 44.5832 22.5C44.5832 19.6 44.012 16.7284 42.9022 14.0491C41.7924 11.3698 40.1657 8.93537 38.1151 6.88475C36.0645 4.83412 33.63 3.20747 30.9508 2.09768C28.2715 0.987889 25.3999 0.416687 22.4998 0.416687ZM20.2915 33.5417H24.7082V20.2917H20.2915V33.5417Z" fill="black"/>
</svg>
