<svg width="16" height="16" viewBox="0 0 16 16" fill="none" xmlns="http://www.w3.org/2000/svg">
<path fill-rule="evenodd" clip-rule="evenodd" d="M15.6967 1.76621C15.7928 1.67026 15.869 1.55632 15.921 1.4309C15.9731 1.30548 15.9999 1.17104 16 1.03526C16.0001 0.899474 15.9734 0.765002 15.9215 0.639521C15.8697 0.514039 15.7936 0.400006 15.6976 0.303933C15.6017 0.207859 15.4877 0.131626 15.3623 0.0795864C15.2369 0.0275465 15.1024 0.000719014 14.9667 0.000635556C14.8309 0.000552099 14.6964 0.0272143 14.5709 0.0791C14.4455 0.130986 14.3314 0.207078 14.2353 0.303034L7.99987 6.53862L1.76618 0.303034C1.57216 0.109004 1.309 -2.04443e-09 1.03461 0C0.760212 2.04443e-09 0.497055 0.109004 0.303029 0.303034C0.109003 0.497063 2.0444e-09 0.760224 0 1.03462C-2.0444e-09 1.30902 0.109003 1.57218 0.303029 1.76621L6.53851 8L0.303029 14.2338C0.206957 14.3299 0.130748 14.4439 0.0787546 14.5694C0.0267607 14.695 0 14.8295 0 14.9654C0 15.1012 0.0267607 15.2358 0.0787546 15.3613C0.130748 15.4868 0.206957 15.6009 0.303029 15.697C0.497055 15.891 0.760212 16 1.03461 16C1.17047 16 1.30501 15.9732 1.43053 15.9212C1.55606 15.8692 1.67011 15.793 1.76618 15.697L7.99987 9.46138L14.2353 15.697C14.4294 15.8908 14.6924 15.9995 14.9667 15.9994C15.2409 15.9992 15.5038 15.8901 15.6976 15.6961C15.8914 15.502 16.0002 15.239 16 14.9647C15.9998 14.6905 15.8907 14.4276 15.6967 14.2338L9.46122 8L15.6967 1.76621Z" fill="#DC143C"/>
</svg>
