<svg width="18" height="15" viewBox="0 0 18 15" fill="none" xmlns="http://www.w3.org/2000/svg">
<path opacity="0.5" d="M0.818182 1.05833L1.86545 0L15.5455 13.9333L14.5064 15L11.9864 12.4333C11.0455 12.75 10.0473 12.9167 9 12.9167C4.90909 12.9167 1.41545 10.325 0 6.66667C0.564545 5.2 1.46455 3.90833 2.61 2.88333L0.818182 1.05833ZM9 4.16667C9.65099 4.16667 10.2753 4.43006 10.7356 4.8989C11.1959 5.36774 11.4545 6.00363 11.4545 6.66667C11.455 6.95047 11.4079 7.23228 11.3155 7.5L8.18182 4.30833C8.44467 4.21415 8.72135 4.16625 9 4.16667ZM9 0.416667C13.0909 0.416667 16.5845 3.00833 18 6.66667C17.3322 8.39434 16.1975 9.89393 14.7273 10.9917L13.5655 9.8C14.6969 9.00282 15.6094 7.92421 16.2164 6.66667C15.5549 5.29162 14.528 4.13314 13.2523 3.32292C11.9766 2.5127 10.5034 2.08323 9 2.08333C8.10818 2.08333 7.23273 2.23333 6.41455 2.5L5.15455 1.225C6.33273 0.708333 7.63364 0.416667 9 0.416667ZM1.78364 6.66667C2.44509 8.04172 3.47201 9.20019 4.74769 10.0104C6.02336 10.8206 7.49662 11.2501 9 11.25C9.56455 11.25 10.1209 11.1917 10.6364 11.075L8.77091 9.16667C8.20159 9.10451 7.67031 8.84573 7.26543 8.43335C6.86056 8.02098 6.60648 7.47986 6.54545 6.9L3.76364 4.05833C2.95364 4.76667 2.27455 5.65 1.78364 6.66667Z" fill="black"/>
</svg>
