<svg width="18" height="12" viewBox="0 0 18 12" fill="none" xmlns="http://www.w3.org/2000/svg">
<path d="M9 3.75C9.59674 3.75 10.169 3.98705 10.591 4.40901C11.0129 4.83097 11.25 5.40326 11.25 6C11.25 6.59674 11.0129 7.16903 10.591 7.59099C10.169 8.01295 9.59674 8.25 9 8.25C8.40326 8.25 7.83097 8.01295 7.40901 7.59099C6.98705 7.16903 6.75 6.59674 6.75 6C6.75 5.40326 6.98705 4.83097 7.40901 4.40901C7.83097 3.98705 8.40326 3.75 9 3.75ZM9 0.375C12.75 0.375 15.9525 2.7075 17.25 6C15.9525 9.2925 12.75 11.625 9 11.625C5.25 11.625 2.0475 9.2925 0.75 6C2.0475 2.7075 5.25 0.375 9 0.375ZM2.385 6C2.99119 7.23773 3.93248 8.28056 5.10186 9.00994C6.27124 9.73932 7.6218 10.126 9 10.126C10.3782 10.126 11.7288 9.73932 12.8981 9.00994C14.0675 8.28056 15.0088 7.23773 15.615 6C15.0088 4.76227 14.0675 3.71944 12.8981 2.99006C11.7288 2.26068 10.3782 1.87401 9 1.87401C7.6218 1.87401 6.27124 2.26068 5.10186 2.99006C3.93248 3.71944 2.99119 4.76227 2.385 6Z" fill="black"/>
</svg>
