<svg width="49" height="49" viewBox="0 0 49 49" fill="none" xmlns="http://www.w3.org/2000/svg">
<path d="M27.2656 36.4844C27.2656 37.0314 27.1034 37.5661 26.7995 38.0209C26.4957 38.4757 26.0637 38.8302 25.5584 39.0395C25.053 39.2488 24.4969 39.3036 23.9605 39.1969C23.424 39.0901 22.9312 38.8267 22.5444 38.44C22.1576 38.0532 21.8942 37.5604 21.7875 37.0239C21.6808 36.4874 21.7356 35.9314 21.9449 35.426C22.1542 34.9207 22.5087 34.4887 22.9635 34.1848C23.4183 33.881 23.953 33.7188 24.5 33.7188C25.2335 33.7188 25.9369 34.0101 26.4556 34.5288C26.9743 35.0474 27.2656 35.7509 27.2656 36.4844ZM24.5 11.5938C19.4159 11.5938 15.2813 15.3158 15.2813 19.8906V20.8125C15.2813 21.3015 15.4755 21.7705 15.8213 22.1162C16.1671 22.462 16.636 22.6562 17.125 22.6562C17.614 22.6562 18.083 22.462 18.4287 22.1162C18.7745 21.7705 18.9688 21.3015 18.9688 20.8125V19.8906C18.9688 17.3555 21.4509 15.2812 24.5 15.2812C27.5491 15.2812 30.0313 17.3555 30.0313 19.8906C30.0313 22.4258 27.5491 24.5 24.5 24.5C24.011 24.5 23.5421 24.6943 23.1963 25.04C22.8505 25.3858 22.6563 25.8548 22.6563 26.3438V28.1875C22.6563 28.6765 22.8505 29.1455 23.1963 29.4912C23.5421 29.837 24.011 30.0312 24.5 30.0312C24.989 30.0312 25.458 29.837 25.8037 29.4912C26.1495 29.1455 26.3438 28.6765 26.3438 28.1875V28.0216C30.5475 27.2495 33.7188 23.8962 33.7188 19.8906C33.7188 15.3158 29.5842 11.5938 24.5 11.5938ZM48.4688 24.5C48.4688 29.2406 47.063 33.8747 44.4293 37.8163C41.7956 41.758 38.0522 44.8301 33.6725 46.6442C29.2927 48.4584 24.4734 48.933 19.8239 48.0082C15.1745 47.0834 10.9036 44.8006 7.55155 41.4485C4.19946 38.0964 1.91665 33.8256 0.991814 29.1761C0.0669741 24.5266 0.541635 19.7073 2.35577 15.3276C4.16991 10.9478 7.24205 7.20443 11.1837 4.57071C15.1253 1.93699 19.7594 0.53125 24.5 0.53125C30.8549 0.537961 36.9475 3.06539 41.4411 7.55895C45.9346 12.0525 48.4621 18.1452 48.4688 24.5ZM44.7813 24.5C44.7813 20.4887 43.5918 16.5676 41.3633 13.2323C39.1347 9.89711 35.9672 7.29761 32.2613 5.76257C28.5554 4.22753 24.4775 3.82589 20.5433 4.60845C16.6092 5.39101 12.9954 7.32261 10.159 10.159C7.32262 12.9954 5.39102 16.6091 4.60846 20.5433C3.8259 24.4775 4.22754 28.5554 5.76258 32.2613C7.29762 35.9672 9.89712 39.1347 13.2324 41.3632C16.5676 43.5918 20.4888 44.7812 24.5 44.7812C29.8771 44.7752 35.0321 42.6364 38.8343 38.8343C42.6364 35.0321 44.7752 29.8771 44.7813 24.5Z" fill="black"/>
</svg>
