<svg width="783" height="642" viewBox="0 0 783 642" fill="none" xmlns="http://www.w3.org/2000/svg">
<g id="No Results">
<g id="circle">
<path id="Stroke 1" d="M27.23 295.563V302.194" stroke="#D2D8DF" stroke-width="2.921" stroke-linecap="round"/>
<g id="Group 8">
<path id="Stroke 2" d="M12.3369 299.155L17.7556 304.733" stroke="#D2D8DF" stroke-width="2.921" stroke-linecap="round"/>
<path id="Stroke 4" d="M6 314.003H13.6619" stroke="#D2D8DF" stroke-width="2.921" stroke-linecap="round"/>
<path id="Stroke 6" d="M11.7188 329.116L17.1374 323.538" stroke="#D2D8DF" stroke-width="2.921" stroke-linecap="round"/>
</g>
<path id="Stroke 9" d="M27.23 330.929V324.298" stroke="#D2D8DF" stroke-width="2.921" stroke-linecap="round"/>
<path id="Stroke 10" d="M38.2821 326.508L33.8613 322.087" stroke="#D2D8DF" stroke-width="2.921" stroke-linecap="round"/>
<path id="Stroke 11" d="M47.1239 315.456H40.4927" stroke="#D2D8DF" stroke-width="2.921" stroke-linecap="round"/>
<path id="Stroke 12" d="M42.703 299.983L38.2822 304.404" stroke="#D2D8DF" stroke-width="2.921" stroke-linecap="round"/>
<path id="Stroke 13" d="M383.105 6V10.4208" stroke="#D2D8DF" stroke-width="2.921" stroke-linecap="round"/>
<path id="Stroke 15" d="M369.842 19.2624H374.263" stroke="#D2D8DF" stroke-width="2.921" stroke-linecap="round"/>
<path id="Stroke 16" d="M383.105 32.5248V28.104" stroke="#D2D8DF" stroke-width="2.921" stroke-linecap="round"/>
<path id="Stroke 17" d="M394.157 19.2624H389.736" stroke="#D2D8DF" stroke-width="2.921" stroke-linecap="round"/>
<path id="Stroke 18" d="M126.697 191.674V198.305" stroke="#D2D8DF" stroke-width="2.921" stroke-linecap="round"/>
<path id="Stroke 19" d="M106.805 211.567H113.436" stroke="#D2D8DF" stroke-width="2.921" stroke-linecap="round"/>
<path id="Stroke 20" d="M126.697 229.251V222.619" stroke="#D2D8DF" stroke-width="2.921" stroke-linecap="round"/>
<path id="Stroke 21" d="M144.381 211.567H137.75" stroke="#D2D8DF" stroke-width="2.921" stroke-linecap="round"/>
<g id="Group 42">
<path id="Stroke 22" d="M602.497 432.694C607.78 432.694 612.064 436.979 612.064 442.263C612.064 447.549 607.78 451.832 602.497 451.832C597.215 451.832 592.931 447.549 592.931 442.263" stroke="#D2D8DF" stroke-width="2.921" stroke-linecap="round"/>
<path id="Fill 26" fill-rule="evenodd" clip-rule="evenodd" d="M646.28 345.879C651.961 344.107 660.668 337.16 662.683 329.686C664.511 336.293 672.173 344.107 679.086 344.698C671.304 347.454 663.863 355.64 662.683 362.07C661.88 355.516 651.589 346.835 646.28 345.879Z" fill="#EBECEE"/>
<path id="Fill 28" fill-rule="evenodd" clip-rule="evenodd" d="M63.2007 429.746C66.0418 428.86 70.3935 425.388 71.4012 421.651C72.315 424.953 76.1451 428.86 79.6016 429.157C75.7116 430.533 71.9923 434.627 71.4012 437.842C70.9996 434.565 65.8541 430.223 63.2007 429.746Z" fill="#EBECEE"/>
<path id="Fill 30" fill-rule="evenodd" clip-rule="evenodd" d="M115.925 122.261C115.925 126.36 112.603 129.681 108.507 129.681C104.408 129.681 101.089 126.36 101.089 122.261C101.089 118.163 104.408 114.841 108.507 114.841C112.603 114.841 115.925 118.163 115.925 122.261Z" fill="#D1D8DF"/>
<path id="Fill 32" fill-rule="evenodd" clip-rule="evenodd" d="M611.262 142.184C611.262 149.034 605.709 154.586 598.864 154.586C592.014 154.586 586.463 149.034 586.463 142.184C586.463 135.335 592.014 129.783 598.864 129.783C605.709 129.783 611.262 135.335 611.262 142.184Z" fill="#EBECEE"/>
<path id="Fill 34" fill-rule="evenodd" clip-rule="evenodd" d="M783.001 108.584C783.001 114.018 778.599 118.422 773.168 118.422C767.735 118.422 763.333 114.018 763.333 108.584C763.333 103.15 767.735 98.7465 773.168 98.7465C778.599 98.7465 783.001 103.15 783.001 108.584Z" fill="#EBECEE"/>
<path id="Stroke 36" fill-rule="evenodd" clip-rule="evenodd" d="M254.557 568.034C254.557 571.459 251.782 574.236 248.357 574.236C244.935 574.236 242.159 571.459 242.159 568.034C242.159 564.608 244.935 561.832 248.357 561.832C251.782 561.832 254.557 564.608 254.557 568.034Z" stroke="#D2D8DF" stroke-width="2.921" stroke-linecap="round"/>
<path id="Stroke 38" fill-rule="evenodd" clip-rule="evenodd" d="M250.869 74.5926C250.869 78.6921 247.548 82.0125 243.451 82.0125C239.355 82.0125 236.033 78.6921 236.033 74.5926C236.033 70.4951 239.355 67.1727 243.451 67.1727C247.548 67.1727 250.869 70.4951 250.869 74.5926Z" stroke="#D2D8DF" stroke-width="2.921" stroke-linecap="round"/>
<path id="Stroke 40" fill-rule="evenodd" clip-rule="evenodd" d="M440.087 636.708C435.347 638.512 430.042 636.13 428.239 631.39C426.436 626.649 428.815 621.341 433.557 619.539C438.295 617.735 443.6 620.115 445.404 624.856C447.209 629.598 444.828 634.904 440.087 636.708Z" stroke="#D2D8DF" stroke-width="2.921" stroke-linecap="round"/>
</g>
</g>
<g id="search">
<g id="documents">
<path id="Fill 1" fill-rule="evenodd" clip-rule="evenodd" d="M437.262 461.343H255.999C243.241 461.343 232.797 450.869 232.797 438.068V179.577C232.797 166.776 243.241 156.307 255.999 156.307H437.262C450.025 156.307 460.469 166.776 460.469 179.577V438.068C460.469 450.869 450.025 461.343 437.262 461.343Z" fill="#E0E2EE"/>
<path id="Fill 3" fill-rule="evenodd" clip-rule="evenodd" d="M421.789 472.395H240.526C227.767 472.395 217.324 461.921 217.324 449.12V190.629C217.324 177.828 227.767 167.359 240.526 167.359H421.789C434.552 167.359 444.996 177.828 444.996 190.629V449.12C444.996 461.921 434.552 472.395 421.789 472.395Z" fill="#E8EBF2"/>
<path id="Fill 5" fill-rule="evenodd" clip-rule="evenodd" d="M406.738 481.12H225.1C212.316 481.12 201.851 470.689 201.851 457.941V200.521C201.851 187.773 212.316 177.347 225.1 177.347H406.738C419.528 177.347 429.993 187.773 429.993 200.521V457.941C429.993 470.689 419.528 481.12 406.738 481.12Z" fill="#D8DBEA"/>
<path id="Fill 8" fill-rule="evenodd" clip-rule="evenodd" d="M406.738 481.12H225.1C212.316 481.12 201.851 470.689 201.851 457.941V200.521C201.851 187.773 212.316 177.347 225.1 177.347H406.738C419.528 177.347 429.993 187.773 429.993 200.521V457.941C429.993 470.689 419.528 481.12 406.738 481.12Z" fill="#F1F2F7"/>
<path id="Fill 11" fill-rule="evenodd" clip-rule="evenodd" d="M380.558 255.775H246.396C242.565 255.775 239.429 252.792 239.429 249.147C239.429 245.497 242.565 242.513 246.396 242.513H380.558C384.389 242.513 387.526 245.497 387.526 249.147C387.526 252.792 384.389 255.775 380.558 255.775Z" fill="#E0E2EE"/>
<path id="Fill 13" fill-rule="evenodd" clip-rule="evenodd" d="M380.558 295.563H246.396C242.565 295.563 239.429 292.579 239.429 288.934C239.429 285.284 242.565 282.3 246.396 282.3H380.558C384.389 282.3 387.526 285.284 387.526 288.934C387.526 292.579 384.389 295.563 380.558 295.563Z" fill="#E0E2EE"/>
<path id="Fill 15" fill-rule="evenodd" clip-rule="evenodd" d="M380.558 335.35H246.396C242.565 335.35 239.429 332.366 239.429 328.721C239.429 325.076 242.565 322.087 246.396 322.087H380.558C384.389 322.087 387.526 325.076 387.526 328.721C387.526 332.366 384.389 335.35 380.558 335.35Z" fill="#E0E2EE"/>
<path id="Fill 17" fill-rule="evenodd" clip-rule="evenodd" d="M380.558 375.137H246.396C242.565 375.137 239.429 372.153 239.429 368.508C239.429 364.858 242.565 361.875 246.396 361.875H380.558C384.389 361.875 387.526 364.858 387.526 368.508C387.526 372.153 384.389 375.137 380.558 375.137Z" fill="#E0E2EE"/>
<path id="Fill 19" fill-rule="evenodd" clip-rule="evenodd" d="M316.427 414.924H246.426C242.578 414.924 239.429 411.941 239.429 408.296C239.429 404.646 242.578 401.662 246.426 401.662H316.427C320.274 401.662 323.424 404.646 323.424 408.296C323.424 411.941 320.274 414.924 316.427 414.924Z" fill="#E0E2EE"/>
</g>
<g id="search_2">
<path id="Fill 21" fill-rule="evenodd" clip-rule="evenodd" d="M457.717 363.503C430.89 390.326 389.359 393.352 359.207 372.643C355.354 369.949 351.686 366.923 348.266 363.503C346.505 361.748 344.846 359.937 343.282 358.031C340.154 354.223 337.415 350.162 335.17 345.967C331.216 338.88 328.527 331.36 327.059 323.587C322.322 299.212 329.404 272.974 348.266 254.121C367.173 235.212 393.415 228.176 417.795 232.867C425.563 234.38 433.09 237.068 440.178 240.977C444.38 243.272 448.385 246.011 452.199 249.138C454.1 250.696 455.912 252.361 457.667 254.121C461.092 257.541 464.164 261.202 466.808 265.061C487.526 295.201 484.494 336.731 457.717 363.503Z" fill="white" fill-opacity="0.1"/>
<path id="Fill 23" fill-rule="evenodd" clip-rule="evenodd" d="M450.21 358.221C422.3 386.136 377.07 386.13 349.155 358.221C321.276 330.342 321.276 285.107 349.191 257.197C377.07 229.318 422.3 229.318 450.179 257.197C478.088 285.107 478.088 330.342 450.21 358.221ZM464.534 242.857C428.709 207.032 370.656 207.032 334.831 242.857C299.012 278.676 298.981 336.766 334.8 372.59C367.405 405.185 418.509 408.124 454.453 381.362C457.964 378.745 461.345 375.81 464.57 372.59C467.79 369.365 470.724 365.984 473.337 362.473C500.099 326.524 497.133 275.456 464.534 242.857Z" fill="#E0E2EE"/>
<path id="Fill 25" fill-rule="evenodd" clip-rule="evenodd" d="M605.519 507.632L604.015 509.136C594.065 519.092 577.771 519.092 567.816 509.136L475.941 417.261L513.644 379.558L605.519 471.433C615.475 481.388 615.475 497.677 605.519 507.632Z" fill="#DC143C"/>
<path id="Fill 27" fill-rule="evenodd" clip-rule="evenodd" d="M475.317 359.664L502.467 386.814L483.192 406.083L456.048 378.933C459.631 376.262 463.075 373.268 466.372 369.982C469.657 366.697 472.652 363.247 475.317 359.664Z" fill="#E0E2EE"/>
<path id="Fill 29" fill-rule="evenodd" clip-rule="evenodd" d="M604.145 470.303L566.681 507.761L559.937 501.012L597.395 463.553L604.145 470.303Z" fill="#EF545F"/>
<path id="Fill 31" fill-rule="evenodd" clip-rule="evenodd" d="M515.728 380.855L477.239 419.345L471.52 413.627L510.009 375.137L515.728 380.855Z" fill="url(#paint0_linear_414_955)"/>
<path id="Fill 33" fill-rule="evenodd" clip-rule="evenodd" d="M431.733 247.594L337.341 341.981C333.786 335.61 331.369 328.85 330.054 321.862L411.612 240.303C418.596 241.668 425.361 244.08 431.733 247.594Z" fill="white" fill-opacity="0.5"/>
<path id="Fill 35" fill-rule="evenodd" clip-rule="evenodd" d="M462.679 270.029L360.631 366.296C356.976 363.89 353.498 361.182 350.254 358.122C348.584 356.547 347.005 354.931 345.527 353.225L448.818 255.775C450.627 257.175 452.345 258.664 454.009 260.24C457.253 263.3 460.171 266.576 462.679 270.029Z" fill="white" fill-opacity="0.5"/>
</g>
</g>
</g>
<defs>
<linearGradient id="paint0_linear_414_955" x1="493.624" y1="353.033" x2="449.416" y2="397.241" gradientUnits="userSpaceOnUse">
<stop stop-color="#FF404E"/>
<stop offset="1" stop-color="#FF62A5"/>
</linearGradient>
</defs>
</svg>
