<svg id="icon-opt-mobile" xmlns="http://www.w3.org/2000/svg" width="81.092" height="82.584" viewBox="0 0 81.092 82.584">
  <path id="Path_1737" data-name="Path 1737" d="M174.4,221.265c.1-.774.119-1.259-.711-1.613-1.024-.437-.855-3.169.141-3.7.185-.1.385-.164.566-.24.1-.684.173-1.218-.683-1.54-.785-.3-.634-1.17-.657-1.867-.032-1,.141-1.871,1.4-2.063,0-2.133,0-4.216,0-6.3.008-3.765,2.26-6.025,6.011-6.026q17.227,0,34.455,0c4.087,0,6.271,2.162,6.277,6.232q.027,20.129.044,40.257.009,11.838,0,23.676c0,2.425.018,4.853-.109,7.273a5.352,5.352,0,0,1-5.394,5.1c-2.3.04-4.606.01-6.909.01-9.4,0-18.794-.069-28.19.036a5.912,5.912,0,0,1-6.224-6.253c.1-15.876.037-31.752.035-47.629,0-.6.081-1.094-.73-1.438-.948-.4-.632-1.484-.653-2.318A1.466,1.466,0,0,1,174.4,221.265Zm43.965,45.4V209.022H177.283v57.647Zm.1-60.526c0-.711,0-1.376,0-2.042-.007-2.427-.99-3.419-3.4-3.419q-17.227,0-34.454,0a7.956,7.956,0,0,0-.829.013,2.431,2.431,0,0,0-2.36,1.747,24.024,24.024,0,0,0-.3,3.7Zm-16.919,63.371a5.854,5.854,0,0,1,1.745,4.067,6.11,6.11,0,0,1-1.73,4.131c4.739,0,9.281.006,13.823,0a2.783,2.783,0,0,0,3.076-3.084c.019-1.381-.04-2.765.021-4.143.035-.8-.183-1.051-1.017-1.045-4.973.04-9.946.019-14.919.022C202.279,269.459,202.016,269.487,201.543,269.514Zm-24.356-.011c0,1.786-.014,3.469,0,5.153a2.771,2.771,0,0,0,3.1,3.054q6.49.011,12.981,0c.223,0,.445-.047.791-.086a5.689,5.689,0,0,1-1.714-4.078,5.754,5.754,0,0,1,1.774-4.043Zm17.915,4.054a2.718,2.718,0,1,0,2.776-2.691A2.685,2.685,0,0,0,195.1,273.557Z" transform="translate(-156.607 -197.92)" fill="#fff"/>
  <path id="Path_1738" data-name="Path 1738" d="M90.794,212.086a1.2,1.2,0,0,1-1.269-1.076c-.044-.272-.094-.543-.127-.816a3.934,3.934,0,0,0-3.5-3.48c-.213-.025-.43-.025-.641-.058a1.286,1.286,0,0,1-1.223-1.363,1.264,1.264,0,0,1,1.222-1.355c.363-.057.734-.076,1.088-.164a3.892,3.892,0,0,0,3.06-3.483c.036-.3,0-.7.176-.884.374-.383.872-.905,1.307-.894s.954.54,1.228.973c.241.382.153.956.279,1.427a4.068,4.068,0,0,0,3.675,3c1.137.125,1.607.526,1.607,1.373s-.5,1.3-1.586,1.411a3.925,3.925,0,0,0-3.8,3.674C92.109,211.624,91.756,212.061,90.794,212.086ZM89.73,205.16l1.171,1.363,1.162-1.182-1.189-1.262Z" transform="translate(-84.036 -198.403)" fill="#fff"/>
  <path id="Path_1739" data-name="Path 1739" d="M467.528,308.382c-1.037-.243-2.65.315-2.586-1.53.059-1.685,1.558-1.149,2.575-1.368.3-.992-.318-2.622,1.5-2.621,1.782,0,1.193,1.569,1.438,2.582,1,.317,2.655-.331,2.626,1.507-.027,1.746-1.586,1.187-2.621,1.428-.26,1.024.344,2.658-1.492,2.614C467.228,310.952,467.792,309.387,467.528,308.382Z" transform="translate(-394.766 -283.53)" fill="#fff"/>
  <path id="Path_1740" data-name="Path 1740" d="M512.274,617.526a1.347,1.347,0,1,1-2.695-.009,1.319,1.319,0,0,1,1.305-1.367A1.334,1.334,0,0,1,512.274,617.526Z" transform="translate(-431.182 -539.1)" fill="#fff"/>
  <path id="Path_1741" data-name="Path 1741" d="M459.9,460.956a1.319,1.319,0,0,1-1.453,1.3,1.3,1.3,0,0,1-1.282-1.377,1.279,1.279,0,0,1,1.445-1.292A1.3,1.3,0,0,1,459.9,460.956Z" transform="translate(-388.421 -411.382)" fill="#fff"/>
  <path id="Path_1742" data-name="Path 1742" d="M92.616,384.792a1.339,1.339,0,1,1-1.407,1.343A1.305,1.305,0,0,1,92.616,384.792Z" transform="translate(-89.887 -350.365)" fill="#fff"/>
  <path id="Path_1743" data-name="Path 1743" d="M130.067,519.071a1.323,1.323,0,0,1,1.305,1.442,1.291,1.291,0,0,1-1.353,1.295,1.316,1.316,0,0,1-1.315-1.433A1.336,1.336,0,0,1,130.067,519.071Z" transform="translate(-120.473 -459.906)" fill="#fff"/>
  <path id="Path_1744" data-name="Path 1744" d="M240.8,436.928q6.587,0,13.174,0a4.517,4.517,0,0,1,.917.051,1.249,1.249,0,0,1,1.071,1.309,1.285,1.285,0,0,1-1.049,1.337,3.55,3.55,0,0,1-.823.057q-13.267,0-26.533,0c-.153,0-.308.006-.46-.008a1.344,1.344,0,0,1-1.377-1.412,1.3,1.3,0,0,1,1.354-1.327c.52-.035,1.044-.012,1.566-.012Z" transform="translate(-199.618 -392.889)" fill="#fff"/>
  <path id="Path_1745" data-name="Path 1745" d="M229.786,375.651c-.652.743-1.12,1.353-1.668,1.88a1.368,1.368,0,0,1-2.04.053,1.343,1.343,0,0,1,.142-1.968c.526-.548,1.12-1.03,1.8-1.65-.69-.655-1.26-1.159-1.786-1.7a1.362,1.362,0,1,1,1.919-1.907c.529.507,1,1.071,1.577,1.688.63-.613,1.161-1.146,1.71-1.659.751-.7,1.51-.737,2.1-.116a1.345,1.345,0,0,1-.169,2.026c-.51.522-1.066,1-1.787,1.668.684.612,1.279,1.086,1.8,1.628a1.336,1.336,0,0,1,.134,2.026,1.366,1.366,0,0,1-2.038-.118C230.955,376.989,230.486,376.418,229.786,375.651Z" transform="translate(-199.612 -338.156)" fill="#fff"/>
  <path id="Path_1746" data-name="Path 1746" d="M350.971,373.935c.7.625,1.247,1.069,1.74,1.569.789.8.844,1.454.239,2.082-.589.612-1.4.564-2.173-.2-.5-.49-.937-1.048-1.6-1.806-.628.749-1.077,1.379-1.622,1.91a1.338,1.338,0,0,1-2.031.1c-.59-.595-.57-1.276.147-2.01.511-.523,1.1-.967,1.988-1.732a25.091,25.091,0,0,1-1.985-1.586,1.311,1.311,0,0,1-.1-2.085,1.358,1.358,0,0,1,2.028.2c.522.514,1,1.072,1.677,1.805.617-.7,1.109-1.315,1.664-1.869a1.327,1.327,0,0,1,1.959-.131,1.291,1.291,0,0,1-.05,2.022C352.318,372.763,351.723,373.248,350.971,373.935Z" transform="translate(-297.003 -338.149)" fill="#fff"/>
  <path id="Path_1747" data-name="Path 1747" d="M289.536,375.775c-.572.637-1.03,1.219-1.561,1.724a1.376,1.376,0,0,1-2.043.1,1.4,1.4,0,0,1,.161-2.046,10.324,10.324,0,0,1,.784-.776c.278-.242.584-.451,1.109-.849-.758-.656-1.359-1.125-1.9-1.657a1.366,1.366,0,1,1,1.891-1.945,7.717,7.717,0,0,1,.84.849,8.835,8.835,0,0,1,.587.94l.412-.092c.483-.55.939-1.127,1.456-1.643a1.362,1.362,0,0,1,2.03-.2c.622.6.588,1.355-.106,2.111a10.072,10.072,0,0,1-.783.778c-.274.24-.578.447-1.116.857.767.652,1.357,1.088,1.869,1.6.741.746.766,1.5.15,2.1a1.4,1.4,0,0,1-2.042-.164c-.272-.246-.517-.523-.78-.78S289.968,376.183,289.536,375.775Z" transform="translate(-248.431 -338.144)" fill="#fff"/>
  <path id="Path_1748" data-name="Path 1748" d="M297.79,223.1c-1.1,0-2.207.027-3.31-.006-1-.03-1.48-.506-1.477-1.374,0-.835.434-1.312,1.414-1.331q3.354-.066,6.711,0a1.293,1.293,0,0,1,1.454,1.317,1.342,1.342,0,0,1-1.482,1.391C300,223.128,298.893,223.1,297.79,223.1Z" transform="translate(-254.505 -216.224)" fill="#fff"/>
  <path id="Path_1749" data-name="Path 1749" d="M265.366,223.12c-.418-.066-.959.006-1.225-.231a1.911,1.911,0,0,1-.692-1.327,1.682,1.682,0,0,1,.945-1.114,3.947,3.947,0,0,1,1.714-.091c.948.072,1.375.548,1.347,1.386-.027.821-.49,1.248-1.441,1.316-.213.015-.427,0-.641,0Z" transform="translate(-230.393 -216.185)" fill="#fff"/>
</svg>
