<svg width="90" height="121" viewBox="0 0 90 121" fill="none" xmlns="http://www.w3.org/2000/svg">
<path d="M9.47887 52.5301C7.78808 53.9545 5.76144 58.1699 4.99712 58.7374C4.23279 59.3048 2.80837 48.1468 5.52984 48.3437C5.52984 48.3437 9.71048 48.8127 10.3127 49.4728C10.9149 50.1329 11.1754 51.0999 9.47887 52.5301Z" fill="#DC143C" stroke="#DC143C" stroke-linecap="round" stroke-linejoin="round"/>
<path d="M82.5241 59.9823C81.6903 59.2469 79.8779 54.3714 78.054 52.5533C76.23 50.7351 76.6932 49.7392 77.5097 49.1254C78.3261 48.5116 83.4216 48.6911 83.4216 48.6911C86.7048 48.9285 83.3406 60.7177 82.5241 59.9823Z" fill="#DC143C" stroke="#DC143C" stroke-linecap="round" stroke-linejoin="round"/>
<path d="M47.1682 12.8951C12.6866 12.0961 5.35606 42.6344 5.35606 42.6344C4.71333 44.3426 7.94435 43.7925 10.2894 43.4335C12.6345 43.0745 13.6073 46.1781 13.6073 46.1781C15.7555 43.9894 18.6333 38.3901 18.6333 38.3901C20.133 33.254 26.9367 31.928 26.9367 31.928C35.9258 32.9368 45.0028 32.8766 53.9777 31.7485C68.0483 29.8435 74.3366 46.1781 74.3366 46.1781C75.1298 41.1347 83.4043 44.1399 83.4043 44.1399C75.9 14.0474 47.1682 12.8951 47.1682 12.8951ZM26.3229 25.1128C44.4468 11.3028 60.5787 24.5801 60.5787 24.5801C41.5805 17.4116 26.3114 25.1128 26.3114 25.1128H26.3229Z" fill="#DC143C" stroke="#DC143C" stroke-linecap="round" stroke-linejoin="round"/>
<path d="M60.5671 24.5685C39.8318 16.7399 28.06 24.2153 26.3113 25.1012C44.4352 11.3028 60.5671 24.5685 60.5671 24.5685Z" fill="#E23961" stroke="#DC143C" stroke-linecap="round" stroke-linejoin="round"/>
<path d="M66.8033 42.3738C63.0222 35.7323 58.969 34.9911 58.969 34.9911H28.8997C21.6617 34.9911 19.6698 44.0878 19.6698 44.0878C16.0219 48.0715 18.8071 50.6598 22.5245 49.9302C26.2419 49.2006 63.0222 50.1271 66.3401 50.2603C69.658 50.3935 70.5902 49.0096 66.8033 42.3738ZM26.6414 37.3073C24.9506 39.8956 19.7799 52.9412 20.5326 47.8457C21.2274 43.1382 25.2923 38.6796 26.6414 37.3073C26.8441 37.0062 26.9946 36.844 27.0815 36.873C27.1683 36.9019 26.9367 37.0351 26.6414 37.3073Z" fill="#DC143C"/>
<path d="M26.6414 37.3073C24.9506 39.8956 19.7799 52.9412 20.5326 47.8457C21.2274 43.1382 25.2923 38.6796 26.6414 37.3073ZM26.6414 37.3073C26.8441 37.0062 26.9946 36.844 27.0815 36.873C27.1683 36.9019 26.9367 37.0351 26.6414 37.3073ZM66.8033 42.3738C63.0222 35.7323 58.969 34.9911 58.969 34.9911H28.8997C21.6617 34.9911 19.6698 44.0878 19.6698 44.0878C16.0219 48.0715 18.8071 50.6598 22.5245 49.9302C26.2419 49.2006 63.0222 50.1271 66.3401 50.2603C69.658 50.3935 70.5902 49.0096 66.8033 42.3738Z" stroke="#DC143C" stroke-linecap="round" stroke-linejoin="round"/>
<path d="M20.5326 63.8155C20.5326 63.8155 10.0173 64.9735 10.4458 61.094C10.4458 61.094 9.51352 59.7622 10.4458 57.7067C10.4458 57.7067 12.5014 54.5857 16.1551 57.7067C19.8088 60.8277 20.5326 63.8155 20.5326 63.8155Z" fill="#003893" stroke="#003893" stroke-linecap="round" stroke-linejoin="round"/>
<path d="M77.475 61.094C77.9266 64.962 66.8033 63.8155 66.8033 63.8155C66.8033 63.8155 67.5735 60.8277 71.4356 57.7067C75.2978 54.5857 77.475 57.7067 77.475 57.7067C78.4709 59.7622 77.475 61.094 77.475 61.094Z" fill="#003893" stroke="#003893" stroke-linecap="round" stroke-linejoin="round"/>
<path d="M57.313 57.5735H30.0983C25.466 56.0448 23.3294 63.9429 26.5836 66.0042C29.8377 68.0656 45.5644 66.537 45.5644 66.537C45.5644 66.537 59.6407 68.8531 60.8393 62.9527C62.0379 57.0524 57.313 57.5735 57.313 57.5735ZM58.9517 65.292H27.1047V63.9429H58.9517V65.292ZM58.9517 62.8948H27.1047V61.5631H58.9517V62.8948ZM58.9517 60.4918H27.1047V59.1658H58.9517V60.4918Z" fill="#003893" stroke="#003893" stroke-linecap="round" stroke-linejoin="round"/>
<path d="M58.9516 59.1659H27.0815V60.4919H58.9516V59.1659Z" fill="#1350A8" stroke="#003893" stroke-linecap="round" stroke-linejoin="round"/>
<path d="M58.9516 61.563H27.0815V62.8948H58.9516V61.563Z" fill="#1350A8" stroke="#003893" stroke-linecap="round" stroke-linejoin="round"/>
<path d="M58.9516 63.966H27.0815V65.292H58.9516V63.966Z" fill="#1350A8" stroke="#003893" stroke-linecap="round" stroke-linejoin="round"/>
<path d="M51.2041 74.9446C46.5139 75.8305 34.2963 74.9446 34.2963 74.9446C34.2963 74.9446 31.5574 74.4871 33.3235 70.7871H53.1496C53.1496 70.7871 55.8885 74.0586 51.2041 74.9446Z" fill="#003893" stroke="#003893" stroke-linecap="round" stroke-linejoin="round"/>
<path d="M65.1878 77.6891H21.7254C25.5296 82.9005 18.0948 84.238 17.5621 85.564C17.0294 86.89 41.8179 119.82 44.3425 119.999C46.8671 120.179 71.7425 84.7881 71.7425 84.7881C62.4432 85.0371 65.1878 77.6891 65.1878 77.6891ZM43.0165 110.793L25.7786 87.967C26.3577 88.4766 45.2979 104.834 45.8538 108.581C46.4097 112.327 43.0165 110.793 43.0165 110.793Z" fill="#003893" stroke="#003893" stroke-linecap="round" stroke-linejoin="round"/>
<path d="M43.0166 110.793L25.7787 87.9671C26.3577 88.4766 45.298 104.834 45.8539 108.581C46.4097 112.327 43.0166 110.793 43.0166 110.793Z" fill="#1350A8" stroke="#003893" stroke-linecap="round" stroke-linejoin="round"/>
<path d="M26.6414 37.3073C24.9506 39.8955 19.7798 52.9412 20.5325 47.8457C21.2274 43.1497 25.2922 38.6911 26.6414 37.3073Z" fill="#E23961" stroke="#DC143C" stroke-linecap="round" stroke-linejoin="round"/>
<path d="M58.5809 5.76719C53.6888 4.3158 48.6272 3.51373 43.526 3.38157H43.3755C38.4104 3.55377 33.485 4.33157 28.7085 5.69771C33.2963 3.93497 38.1549 2.98088 43.0686 2.87781H43.3697C48.546 3.16081 53.6614 4.13249 58.5809 5.76719Z" fill="#DC143C"/>
<path d="M43.086 0C38.697 0 2.66356 1.37809 0 46.4213C0.526922 39.5365 5.0434 7.95016 43.5203 6.27674C44.6494 6.27674 86.4153 6.56046 89.2641 48.3437C89.2641 48.3437 91.505 3.0573 43.5203 0.00577834L43.086 0Z" fill="#DC143C"/>
</svg>
