<svg id="Main" xmlns="http://www.w3.org/2000/svg" viewBox="0 0 307.24 266.4"><defs><style>.cls-1{fill:#1e1b1b;}.cls-1,.cls-2,.cls-3{stroke:#231f20;stroke-linecap:round;stroke-linejoin:round;}.cls-2{fill:#4f4a4a;}.cls-3{fill:none;}.cls-4{font-size:48px;font-family:Garamond;}.cls-4,.cls-7{fill:#231f20;}.cls-5,.cls-6{font-size:36px;}.cls-6{letter-spacing:-0.02em;}</style></defs><g id="Logo"><path class="cls-1" d="M355.85,375.29c-2.92,2.46-6.42,9.74-7.74,10.72s-3.78-18.29.92-17.95c0,0,7.22.81,8.26,1.95S358.78,372.82,355.85,375.29Z" transform="translate(-269.41 -280.77)"/><path class="cls-1" d="M482,388.16c-1.44-1.27-4.57-9.69-7.72-12.83s-2.35-4.86-.94-5.92,10.21-.75,10.21-.75C489.22,369.07,483.41,389.43,482,388.16Z" transform="translate(-269.41 -280.77)"/><path class="cls-1" d="M420.94,306.84c-59.55-1.38-72.21,51.36-72.21,51.36-1.11,2.95,4.47,2,8.52,1.38s5.73,4.74,5.73,4.74c3.71-3.78,8.68-13.45,8.68-13.45C374.25,342,386,339.71,386,339.71a197.69,197.69,0,0,0,46.7-.31c24.3-3.29,35.16,24.92,35.16,24.92,1.37-8.71,15.66-3.52,15.66-3.52C470.56,308.83,420.94,306.84,420.94,306.84Zm-36,21.1c31.3-23.85,59.16-.92,59.16-.92C411.29,314.64,384.92,327.94,384.92,327.94Z" transform="translate(-269.41 -280.77)"/><path class="cls-2" d="M444.08,327c-32.79-12.38-59.16.92-59.16.92C416.22,304.09,444.08,327,444.08,327Z" transform="translate(-269.41 -280.77)"/><path class="cls-1" d="M454.85,357.75C448.32,346.28,441.32,345,441.32,345H389.39c-12.5,0-15.94,15.71-15.94,15.71-6.3,6.88-1.49,11.35,4.93,10.09s69.94.34,75.67.57S461.39,369.21,454.85,357.75ZM385.49,349c-2.92,4.47-11.85,27-10.55,18.2,1.2-8.13,8.22-15.83,10.55-18.2.35-.52.61-.8.76-.75S386,348.53,385.49,349Z" transform="translate(-269.41 -280.77)"/><path class="cls-3" d="M386.25,348.27s-.28.26-.76.75C385.84,348.5,386.1,348.22,386.25,348.27Z" transform="translate(-269.41 -280.77)"/><path class="cls-1" d="M374.94,394.78s-18.16,2-17.42-4.7c0,0-1.61-2.3,0-5.85,0,0,3.55-5.39,9.86,0S374.94,394.78,374.94,394.78Z" transform="translate(-269.41 -280.77)"/><path class="cls-1" d="M473.28,390.08c.78,6.68-18.43,4.7-18.43,4.7s1.33-5.16,8-10.55,10.43,0,10.43,0C475,387.78,473.28,390.08,473.28,390.08Z" transform="translate(-269.41 -280.77)"/><path class="cls-1" d="M438.46,384h-47c-8-2.64-11.69,11-6.07,14.56s32.78.92,32.78.92,24.31,4,26.38-6.19S438.46,384,438.46,384Zm2.83,13.33h-55V395h55Zm0-4.14h-55v-2.3h55Zm0-4.15h-55v-2.29h55Z" transform="translate(-269.41 -280.77)"/><rect class="cls-2" x="116.84" y="105.98" width="55.04" height="2.29"/><rect class="cls-2" x="116.84" y="110.12" width="55.04" height="2.3"/><rect class="cls-2" x="116.84" y="114.27" width="55.04" height="2.29"/><path class="cls-1" d="M427.91,414c-8.1,1.53-29.2,0-29.2,0s-4.73-.79-1.68-7.18h34.24S436,412.47,427.91,414Z" transform="translate(-269.41 -280.77)"/><path class="cls-1" d="M452.06,418.74H377c6.57,9-6.27,11.31-7.19,13.6s41.89,59.16,46.25,59.47S463.38,431,463.38,431C447.32,431.43,452.06,418.74,452.06,418.74Zm-38.29,57.17L384,436.49c1,.88,33.71,29.13,34.67,35.6S413.77,475.91,413.77,475.91Z" transform="translate(-269.41 -280.77)"/><path class="cls-3" d="M362.94,454.2" transform="translate(-269.41 -280.77)"/><path class="cls-2" d="M413.77,475.91,384,436.49c1,.88,33.71,29.13,34.67,35.6S413.77,475.91,413.77,475.91Z" transform="translate(-269.41 -280.77)"/><path class="cls-2" d="M385.49,349c-2.92,4.47-11.85,27-10.55,18.2C376.14,359.09,383.16,351.39,385.49,349Z" transform="translate(-269.41 -280.77)"/><path class="cls-3" d="M386.25,348.27s-.28.26-.76.75C385.84,348.5,386.1,348.22,386.25,348.27Z" transform="translate(-269.41 -280.77)"/></g><text id="Text" class="cls-4" transform="translate(0 251.68)">H<tspan class="cls-5" x="36.49" y="0">AM</tspan><tspan class="cls-6" x="90.88" y="0">R</tspan><tspan class="cls-5" x="112.48" y="0">O</tspan><tspan x="140.61" y="0" xml:space="preserve"> S</tspan><tspan class="cls-5" x="175.6" y="0">ADHAN</tspan></text><path class="cls-7" d="M413.89,280.77c-7.58,0-69.81,2.38-74.41,80.17.91-11.89,8.71-66.44,75.16-69.33h0c1.94,0,74.08.49,79,72.65,0,0,3.87-78.21-79-83.48Z" transform="translate(-269.41 -280.77)"/></svg>