<svg width="20" height="20" viewBox="0 0 20 20" fill="none" xmlns="http://www.w3.org/2000/svg">
<path d="M17.905 15.1163H16.3036C16.1943 15.1163 16.0918 15.1651 16.0234 15.2512C15.864 15.4488 15.6931 15.6395 15.5132 15.8209C14.7772 16.5731 13.9054 17.1725 12.946 17.5861C11.952 18.0147 10.8837 18.2345 9.8047 18.2326C8.71357 18.2326 7.65662 18.014 6.66344 17.5861C5.70404 17.1725 4.83223 16.5731 4.09622 15.8209C3.35889 15.0713 2.77096 14.1828 2.36499 13.2047C1.94358 12.1907 1.73173 11.114 1.73173 10C1.73173 8.88607 1.94586 7.80932 2.36499 6.79537C2.77046 5.8163 3.35361 4.93491 4.09622 4.1791C4.83882 3.42329 5.70216 2.82794 6.66344 2.41398C7.65662 1.98608 8.71357 1.76747 9.8047 1.76747C10.8958 1.76747 11.9528 1.98375 12.946 2.41398C13.9072 2.82794 14.7706 3.42329 15.5132 4.1791C15.6931 4.36282 15.8617 4.55352 16.0234 4.74886C16.0918 4.83491 16.1966 4.88375 16.3036 4.88375H17.905C18.0485 4.88375 18.1374 4.72096 18.0576 4.5977C16.3105 1.82561 13.2535 -0.0092671 9.77964 3.52061e-05C4.32173 0.0139887 -0.0541635 4.53724 0.000506735 10.1023C0.055177 15.5791 4.42424 20 9.8047 20C13.2694 20 16.3127 18.1674 18.0576 15.4023C18.1351 15.2791 18.0485 15.1163 17.905 15.1163ZM19.9301 9.85351L16.6977 7.24886C16.577 7.15119 16.4016 7.23956 16.4016 7.39537V9.16281H9.24889C9.14866 9.16281 9.06665 9.24653 9.06665 9.34886V10.6512C9.06665 10.7535 9.14866 10.8372 9.24889 10.8372H16.4016V12.6047C16.4016 12.7605 16.5793 12.8488 16.6977 12.7512L19.9301 10.1465C19.9519 10.1291 19.9695 10.1069 19.9816 10.0815C19.9937 10.0561 20 10.0283 20 10C20 9.97178 19.9937 9.94391 19.9816 9.91853C19.9695 9.89315 19.9519 9.87091 19.9301 9.85351Z" fill="#FF4545"/>
</svg>
