<svg width="17" height="17" viewBox="0 0 17 17" fill="none" xmlns="http://www.w3.org/2000/svg">
<mask id="mask0_5_744" style="mask-type:alpha" maskUnits="userSpaceOnUse" x="0" y="0" width="17" height="17">
<path d="M14.4998 3.99998V8.49998H2.49976M8.49976 3.99998V13M2.49976 3.99998V13" stroke="white" stroke-linecap="round" stroke-linejoin="round"/>
<path d="M16 2.5C16 2.89782 15.842 3.27936 15.5607 3.56066C15.2794 3.84196 14.8978 4 14.5 4C14.1022 4 13.7206 3.84196 13.4393 3.56066C13.158 3.27936 13 2.89782 13 2.5C13 2.10218 13.158 1.72064 13.4393 1.43934C13.7206 1.15804 14.1022 1 14.5 1C14.8978 1 15.2794 1.15804 15.5607 1.43934C15.842 1.72064 16 2.10218 16 2.5V2.5ZM10 2.5C10 2.89782 9.84196 3.27936 9.56066 3.56066C9.27936 3.84196 8.89782 4 8.5 4C8.10218 4 7.72064 3.84196 7.43934 3.56066C7.15804 3.27936 7 2.89782 7 2.5C7 2.10218 7.15804 1.72064 7.43934 1.43934C7.72064 1.15804 8.10218 1 8.5 1C8.89782 1 9.27936 1.15804 9.56066 1.43934C9.84196 1.72064 10 2.10218 10 2.5V2.5ZM4 2.5C4 2.89782 3.84196 3.27936 3.56066 3.56066C3.27936 3.84196 2.89782 4 2.5 4C2.10218 4 1.72064 3.84196 1.43934 3.56066C1.15804 3.27936 1 2.89782 1 2.5C1 2.10218 1.15804 1.72064 1.43934 1.43934C1.72064 1.15804 2.10218 1 2.5 1C2.89782 1 3.27936 1.15804 3.56066 1.43934C3.84196 1.72064 4 2.10218 4 2.5V2.5ZM10 14.5C10 14.8978 9.84196 15.2794 9.56066 15.5607C9.27936 15.842 8.89782 16 8.5 16C8.10218 16 7.72064 15.842 7.43934 15.5607C7.15804 15.2794 7 14.8978 7 14.5C7 14.1022 7.15804 13.7206 7.43934 13.4393C7.72064 13.158 8.10218 13 8.5 13C8.89782 13 9.27936 13.158 9.56066 13.4393C9.84196 13.7206 10 14.1022 10 14.5V14.5ZM4 14.5C4 14.8978 3.84196 15.2794 3.56066 15.5607C3.27936 15.842 2.89782 16 2.5 16C2.10218 16 1.72064 15.842 1.43934 15.5607C1.15804 15.2794 1 14.8978 1 14.5C1 14.1022 1.15804 13.7206 1.43934 13.4393C1.72064 13.158 2.10218 13 2.5 13C2.89782 13 3.27936 13.158 3.56066 13.4393C3.84196 13.7206 4 14.1022 4 14.5V14.5ZM14.5 16C14.8978 16 15.2794 15.842 15.5607 15.5607C15.842 15.2794 16 14.8978 16 14.5C16 14.1022 15.842 13.7206 15.5607 13.4393C15.2794 13.158 14.8978 13 14.5 13C14.1022 13 13.7206 13.158 13.4393 13.4393C13.158 13.7206 13 14.1022 13 14.5C13 14.8978 13.158 15.2794 13.4393 15.5607C13.7206 15.842 14.1022 16 14.5 16V16Z" fill="white" stroke="white" stroke-linecap="round" stroke-linejoin="round"/>
</mask>
<g mask="url(#mask0_5_744)">
<path d="M-0.499756 -0.499985H17.5002V17.5H-0.499756V-0.499985Z" fill="#104573"/>
</g>
</svg>
