<svg width="22" height="22" viewBox="0 0 22 22" fill="none" xmlns="http://www.w3.org/2000/svg">
<path d="M21.2178 13.1394L21.218 13.1393L21.2154 13.131C21.1607 12.9537 21.0515 12.7981 20.9033 12.6863C20.7551 12.5745 20.5755 12.5123 20.39 12.5083L20.39 12.5083H20.3847H20.3743H20.3524L20.3309 12.5121L20.1543 12.5432L20.1427 12.5453L20.1312 12.5485C18.6516 12.9573 17.0901 12.9665 15.6058 12.575C14.1215 12.1835 12.7677 11.4053 11.6822 10.3199C10.5968 9.23444 9.81866 7.88053 9.42715 6.39624C9.03566 4.91195 9.04481 3.35038 9.45368 1.87078L9.45374 1.8708L9.45518 1.86509C9.4709 1.80249 9.48024 1.73846 9.48306 1.67398C9.4971 1.49203 9.45237 1.31032 9.35536 1.15563C9.25772 0.99993 9.11237 0.879981 8.94102 0.813651C8.75772 0.74003 8.55503 0.729962 8.36534 0.78507C6.61249 1.27567 5.01862 2.21667 3.7423 3.51447C2.46566 4.81258 1.55124 6.42241 1.09003 8.18372C0.628826 9.94504 0.636923 11.7964 1.11352 13.5537C1.59011 15.3109 2.51858 16.9126 3.80653 18.1995C5.09447 19.4864 6.69698 20.4136 8.45457 20.8887C10.2122 21.3639 12.0635 21.3704 13.8244 20.9078C15.5854 20.4451 17.1944 19.5293 18.4914 18.2516C19.7885 16.9739 20.7283 15.3787 21.2173 13.6249L21.2178 13.6232C21.2607 13.4648 21.2607 13.2978 21.2178 13.1394ZM11.1749 19.5065C9.16589 19.5064 7.21911 18.8095 5.66657 17.5344C4.11398 16.2594 3.05182 14.4851 2.66124 12.5144C2.27067 10.5436 2.57588 8.49839 3.52481 6.72753C4.40407 5.08669 5.78553 3.77558 7.46108 2.98236C7.29062 4.46598 7.44039 5.9708 7.90242 7.39461C8.41114 8.96234 9.28396 10.3873 10.4494 11.5527C11.6148 12.7182 13.0397 13.591 14.6074 14.0997C16.0311 14.5617 17.5358 14.7115 19.0192 14.5411C18.3483 15.9555 17.3064 17.165 16.0009 18.0386C14.5728 18.9943 12.8933 19.5051 11.1749 19.5065Z" fill="#396EB5" stroke="#396EB5" stroke-width="0.5"/>
</svg>
