<svg width="248" height="185" viewBox="0 0 248 185" fill="none" xmlns="http://www.w3.org/2000/svg">
<path d="M247.798 162.281H0V162.405H247.798V162.281Z" fill="#EBEBEB"/>
<path d="M222.969 170.258H215.584V170.382H222.969V170.258Z" fill="#EBEBEB"/>
<path d="M164.151 171.603H159.843V171.727H164.151V171.603Z" fill="#EBEBEB"/>
<path d="M213.491 165.656H196.546V165.78H213.491V165.656Z" fill="#EBEBEB"/>
<path d="M54.3318 168.213H32.9258V168.337H54.3318V168.213Z" fill="#EBEBEB"/>
<path d="M66.4651 168.213H58.7451V168.337H66.4651V168.213Z" fill="#EBEBEB"/>
<path d="M126.255 166.55H79.8301V166.674H126.255V166.55Z" fill="#EBEBEB"/>
<path d="M117.463 140.178H21.7626C21.0125 140.177 20.2934 139.879 19.7631 139.349C19.2327 138.818 18.9344 138.099 18.9336 137.349V2.828C18.9347 2.07812 19.2331 1.35927 19.7634 0.829121C20.2938 0.298968 21.0127 0.000793618 21.7626 0H117.463C118.212 0.00105816 118.931 0.299348 119.461 0.829472C119.991 1.3596 120.29 2.07829 120.291 2.828V137.347C120.29 138.097 119.992 138.817 119.462 139.347C118.932 139.878 118.213 140.177 117.463 140.178ZM21.7636 0.124001C21.0482 0.126111 20.3626 0.411253 19.8567 0.917145C19.3508 1.42304 19.0657 2.10857 19.0636 2.824V137.347C19.0657 138.062 19.3508 138.748 19.8567 139.254C20.3626 139.76 21.0482 140.045 21.7636 140.047H117.464C118.179 140.045 118.865 139.76 119.37 139.254C119.876 138.748 120.161 138.062 120.164 137.347V2.828C120.161 2.11256 119.876 1.42703 119.37 0.921143C118.865 0.415251 118.179 0.130113 117.464 0.128002L21.7636 0.124001Z" fill="#EBEBEB"/>
<path d="M224.659 140.178H128.959C128.209 140.177 127.49 139.879 126.96 139.348C126.43 138.818 126.132 138.099 126.131 137.349V2.828C126.132 2.07821 126.43 1.35936 126.96 0.829182C127.49 0.299001 128.209 0.000794128 128.959 0H224.659C225.409 0.000793618 226.128 0.298968 226.658 0.829121C227.188 1.35927 227.487 2.07812 227.488 2.828V137.347C227.488 138.097 227.19 138.817 226.659 139.348C226.129 139.879 225.409 140.177 224.659 140.178ZM128.959 0.124001C128.243 0.126111 127.558 0.411253 127.052 0.917145C126.546 1.42304 126.261 2.10857 126.259 2.824V137.347C126.261 138.062 126.546 138.748 127.052 139.254C127.558 139.76 128.243 140.045 128.959 140.047H224.659C225.375 140.046 226.062 139.762 226.569 139.256C227.076 138.75 227.362 138.063 227.364 137.347V2.828C227.362 2.1117 227.076 1.42542 226.569 0.919384C226.062 0.41335 225.375 0.128793 224.659 0.128002L128.959 0.124001Z" fill="#EBEBEB"/>
<path d="M106.292 162.279H115.521L115.521 98.9073H106.292V162.279Z" fill="#E6E6E6"/>
<path d="M109.542 162.279H106.293V150.239H112.948L109.542 162.279Z" fill="#F0F0F0"/>
<path d="M203.888 162.279H213.117V98.9073H203.888V162.279Z" fill="#E6E6E6"/>
<path d="M106.294 158.992H206.723V98.9072L106.294 98.9072L106.294 158.992Z" fill="#F0F0F0"/>
<path d="M203.478 162.279H206.727V150.239H200.068L203.478 162.279Z" fill="#F0F0F0"/>
<path d="M173.613 103.882V153.586H203.384V103.882H173.613Z" fill="#E6E6E6"/>
<path d="M185.554 105.63H191.444C193.937 105.655 196.349 104.749 198.208 103.088H178.791C180.65 104.748 183.062 105.655 185.554 105.63Z" fill="#F0F0F0"/>
<path d="M141.622 103.882V153.586H171.393V103.882H141.622Z" fill="#E6E6E6"/>
<path d="M153.262 105.63H159.152C161.644 105.655 164.056 104.748 165.915 103.088H146.498C148.357 104.749 150.769 105.655 153.262 105.63Z" fill="#F0F0F0"/>
<path d="M109.632 103.882V153.586H139.403V103.882H109.632Z" fill="#E6E6E6"/>
<path d="M121.272 105.63H127.162C129.654 105.655 132.067 104.749 133.926 103.088H114.508C116.367 104.749 118.779 105.655 121.272 105.63Z" fill="#F0F0F0"/>
<path d="M34.6814 162.279H97.6514L97.6514 20.7273H34.6814L34.6814 162.279Z" fill="#F0F0F0"/>
<path d="M34.6813 162.279H96.3223L96.3223 20.7273H34.6813L34.6813 162.279Z" fill="#F5F5F5"/>
<path d="M92.5664 159.067L92.5664 23.9395L38.4374 23.9395L38.4374 159.067H92.5664Z" fill="#EAECF0"/>
<path d="M87.2478 49.0705C87.2478 47.1326 86.8661 45.2136 86.1245 43.4232C85.3829 41.6328 84.2959 40.006 82.9256 38.6357C81.5553 37.2654 79.9285 36.1784 78.1381 35.4368C76.3477 34.6952 74.4287 34.3135 72.4908 34.3135H58.5148C54.601 34.3135 50.8475 35.8682 48.08 38.6357C45.3126 41.4032 43.7578 45.1567 43.7578 49.0705H87.2478Z" fill="#FAFAFA"/>
<path d="M87.248 150.669V118.387H43.758V150.669H87.248Z" fill="#F5F5F5"/>
<path d="M87.2475 58.1729H68.0645V114.222H87.2475V58.1729Z" fill="#F5F5F5"/>
<path d="M62.9408 58.1729H43.7578V114.222H62.9408V58.1729Z" fill="#F5F5F5"/>
<path d="M50.7147 85.9448H42.8577C42.5346 85.944 42.225 85.8153 41.9966 85.5869C41.7682 85.3585 41.6395 85.0489 41.6387 84.7258C41.6397 84.4029 41.7685 84.0934 41.9969 83.865C42.2253 83.6367 42.5347 83.5079 42.8577 83.5068H50.7147C51.0377 83.5079 51.3471 83.6367 51.5755 83.865C51.8038 84.0934 51.9326 84.4029 51.9337 84.7258C51.9329 85.0489 51.8042 85.3585 51.5758 85.5869C51.3473 85.8153 51.0377 85.944 50.7147 85.9448Z" fill="#E0E0E0"/>
<path d="M39.4131 159.067L39.4131 23.9395H38.4391L38.4391 159.067H39.4131Z" fill="#F0F0F0"/>
<path d="M137.481 83.3711L204.26 83.3711V20.7271L137.481 20.7271V83.3711Z" fill="#E6E6E6"/>
<path d="M135.799 83.3711L202.578 83.3711V20.7271L135.799 20.7271V83.3711Z" fill="#F5F5F5"/>
<path d="M131.899 86.9971L204.26 86.9971V83.3711L131.899 83.3711V86.9971Z" fill="#E6E6E6"/>
<path d="M130.004 86.9971L198.638 86.9971V83.3711L130.004 83.3711V86.9971Z" fill="#F5F5F5"/>
<path d="M199.555 80.1133V23.9863L138.819 23.9863V80.1133H199.555Z" fill="white"/>
<path d="M170.871 80.1133V23.9863H167.504V80.1133H170.871Z" fill="#F5F5F5"/>
<path d="M140.092 80.1133V23.9863H138.819V80.1133H140.092Z" fill="#E6E6E6"/>
<path d="M172.143 80.1133V23.9863H170.87V80.1133H172.143Z" fill="#E6E6E6"/>
<path d="M146.459 85.0323C145.231 72.3073 144.376 51.6583 145.04 44.7523C145.052 44.6336 145.088 44.5187 145.148 44.4153C145.207 44.3118 145.287 44.2222 145.384 44.1523C145.512 44.0583 145.665 44.0023 145.823 43.9907C145.982 43.979 146.141 44.0122 146.282 44.0864C146.422 44.1607 146.539 44.2729 146.619 44.4105C146.699 44.548 146.739 44.7052 146.734 44.8643C146.617 48.2863 146.482 56.8393 147.211 71.5943C147.574 78.9393 148.097 83.9693 147.738 85.0303L146.459 85.0323Z" fill="#E6E6E6"/>
<path d="M141.881 55.7033C138.381 51.8203 131.242 49.0593 123.964 49.0733C121.107 49.0793 132.657 53.5903 137.464 58.5733C141.305 62.7113 144.467 67.4314 146.833 72.5583C145.905 64.9533 145.378 59.5843 141.881 55.7033Z" fill="#E6E6E6"/>
<path d="M148.812 56.8857C151.712 52.8417 158.419 49.7317 165.672 49.3797C168.519 49.2417 157.686 54.3167 153.643 59.5187C150.418 63.8666 147.967 68.7379 146.396 73.9187C146.184 66.3057 145.908 60.9307 148.812 56.8857Z" fill="#E6E6E6"/>
<path d="M141.725 41.5213C138.764 38.2333 132.716 35.8953 126.553 35.9073C124.134 35.9073 133.914 39.7333 137.981 43.9483C141.234 47.4521 143.912 51.4489 145.915 55.7903C145.133 49.3563 144.684 44.8093 141.725 41.5213Z" fill="#E6E6E6"/>
<path d="M147.594 46.3847C150.053 42.9597 155.73 40.3267 161.871 40.0287C164.282 39.9117 155.109 44.2087 151.685 48.6137C148.953 52.2972 146.877 56.4244 145.548 60.8137C145.37 54.3617 145.135 49.8077 147.594 46.3847Z" fill="#E6E6E6"/>
<path d="M146.954 98.9073C145.108 98.9073 143.333 98.2015 141.991 96.9346C140.649 95.6677 139.843 93.9356 139.737 92.0933L139.099 81.0303H154.809L154.171 92.0933C154.065 93.9356 153.258 95.6677 151.916 96.9346C150.575 98.2015 148.799 98.9073 146.954 98.9073Z" fill="#E6E6E6"/>
<path d="M155.825 83.5453H138.084L137.576 78.9453H156.337L155.825 83.5453Z" fill="#E6E6E6"/>
<path d="M123.899 184.664C176.968 184.664 219.99 182.152 219.99 179.052C219.99 175.953 176.968 173.44 123.899 173.44C70.829 173.44 27.8076 175.953 27.8076 179.052C27.8076 182.152 70.829 184.664 123.899 184.664Z" fill="#F5F5F5"/>
<path d="M125.838 173.689L121.7 174.155L120.174 164.771L124.312 164.305L125.838 173.689Z" fill="#FFC3BD"/>
<path d="M144.364 174.593H140.232L139.203 165.024H143.335L144.364 174.593Z" fill="#FFC3BD"/>
<path d="M139.892 174.112H144.929C145.011 174.112 145.091 174.14 145.155 174.192C145.219 174.243 145.263 174.314 145.281 174.394L146.097 178.067C146.116 178.157 146.115 178.249 146.093 178.338C146.072 178.427 146.03 178.51 145.972 178.581C145.914 178.651 145.84 178.708 145.757 178.746C145.674 178.785 145.584 178.804 145.492 178.802C143.871 178.774 142.692 178.679 140.648 178.679C139.392 178.679 135.604 178.809 133.87 178.809C132.17 178.809 131.909 177.094 132.619 176.939C135.803 176.239 138.202 175.282 139.219 174.366C139.404 174.201 139.644 174.111 139.892 174.112Z" fill="#263238"/>
<path d="M121.632 173.446L126.116 172.938C126.198 172.928 126.28 172.947 126.35 172.991C126.419 173.034 126.471 173.1 126.498 173.178L127.723 176.735C127.754 176.821 127.765 176.913 127.755 177.004C127.745 177.095 127.714 177.182 127.665 177.259C127.616 177.336 127.55 177.401 127.472 177.449C127.394 177.497 127.306 177.526 127.215 177.535C125.595 177.691 123.247 177.861 121.215 178.092C118.838 178.362 118.442 178.998 115.638 178.933C113.938 178.893 113.512 177.168 114.225 177.033C117.473 176.402 118.101 175.911 120.682 173.885C120.952 173.653 121.281 173.501 121.632 173.446Z" fill="#263238"/>
<path d="M125.282 53.1775C123.894 54.3235 122.528 55.3195 121.115 56.3395C119.702 57.3595 118.259 58.3065 116.774 59.2255C115.289 60.1445 113.765 61.0255 112.167 61.8255C110.533 62.6718 108.833 63.3816 107.082 63.9475C106.619 64.0955 106.168 64.2175 105.648 64.3475C105.14 64.4577 104.626 64.5402 104.108 64.5945C103.177 64.6945 102.301 64.7395 101.428 64.7795C99.6881 64.8595 97.9811 64.8575 96.2761 64.8455C92.8661 64.8045 89.4851 64.6405 86.0891 64.3405L86.0381 61.2405C89.3731 60.8115 92.7231 60.4405 96.0381 60.0675C97.6951 59.8875 99.3481 59.6855 100.963 59.4745C101.763 59.3655 102.563 59.2375 103.301 59.1005C103.618 59.0445 103.932 58.9707 104.241 58.8795C104.532 58.7795 104.889 58.6655 105.219 58.5325C106.636 57.9571 108.012 57.2842 109.336 56.5185C110.707 55.7315 112.079 54.8865 113.427 53.9885C114.775 53.0905 116.117 52.1605 117.447 51.2115C118.777 50.2625 120.106 49.2575 121.354 48.3115L125.282 53.1775Z" fill="#FFC3BD"/>
<path d="M129.321 49.6453C128.727 53.5513 120.503 59.5263 120.503 59.5263L114.603 52.2033C117.187 49.445 119.928 46.8371 122.811 44.3923C125.466 42.2223 129.967 45.3953 129.321 49.6453Z" fill="#98A2B3"/>
<path d="M87.1763 61.5674L84.8302 59.8974L84.5732 65.1734C84.9279 65.1744 85.2773 65.0884 85.5911 64.9232C85.9049 64.7579 86.1734 64.5184 86.3732 64.2254L87.1763 61.5674Z" fill="#FFC3BD"/>
<path d="M82.7105 58.3613L82.2305 63.5323L84.5745 65.1733L84.8315 59.8973L82.7105 58.3613Z" fill="#FFC3BD"/>
<path opacity="0.2" d="M120.176 164.774L120.962 169.611L125.101 169.145L124.315 164.308L120.176 164.774Z" fill="black"/>
<path opacity="0.2" d="M143.337 165.024H139.203L139.735 169.956H143.869L143.337 165.024Z" fill="black"/>
<path d="M143.396 44.5171C143.704 44.5861 143.995 44.716 144.252 44.8991C144.508 45.0822 144.726 45.3148 144.892 45.5832C145.057 45.8517 145.167 46.1505 145.216 46.4622C145.264 46.7739 145.25 47.0921 145.173 47.3981C144.277 51.1196 143.601 54.8908 143.149 58.6921C142.758 61.8921 142.524 64.9491 142.378 67.7201C142.035 74.2151 142.178 79.1661 141.984 80.8441C138.753 80.6201 126.577 79.7731 119.938 79.3091C117.697 61.7651 120.323 50.5691 121.798 46.0201C122.024 45.3113 122.447 44.6812 123.017 44.2032C123.587 43.7252 124.281 43.4189 125.018 43.3201C125.864 43.2091 126.876 43.1021 127.944 43.0391C128.318 43.0151 128.697 43.0021 129.083 42.9941C132.217 43.0312 135.347 43.2489 138.456 43.6461C139.046 43.7161 139.642 43.8031 140.222 43.8961C141.381 44.0901 142.483 44.3131 143.396 44.5171Z" fill="#D0D5DD"/>
<path d="M138.265 33.033C137.465 36.007 136.487 41.491 138.457 43.651C133.347 47.088 130.085 51.927 129.144 50.876C128.651 50.326 128.437 43.961 129.085 42.997C132.504 42.429 132.591 39.928 132.169 37.544L138.265 33.033Z" fill="#FFC3BD"/>
<path d="M138.061 42.418C138.061 42.418 129.734 46.103 128.63 54.343C130.924 51.687 135.991 48.797 135.991 48.797L133.756 48.155C135.177 47.6156 136.649 47.2196 138.149 46.973C137.901 45.835 139.223 43.565 139.223 43.565L138.061 42.418Z" fill="#98A2B3"/>
<path d="M130.548 42.285C130.548 42.285 131.658 46.991 128.631 54.343C128.034 51.7769 127.215 49.2675 126.185 46.843L128.224 47.398C128.224 47.398 128.124 46.449 126.473 45.187C127.161 44.1877 128.019 43.3168 129.008 42.614L130.548 42.285Z" fill="#98A2B3"/>
<path opacity="0.2" d="M135.78 34.874L132.172 37.542C132.279 38.0972 132.337 38.6607 132.345 39.226C133.645 39.126 135.505 37.843 135.736 36.508C135.849 35.9705 135.864 35.4169 135.78 34.874Z" fill="black"/>
<path d="M127.683 24.421C125.668 24.508 124.556 27.982 126.601 30.843C128.646 33.704 130.398 24.304 127.683 24.421Z" fill="#263238"/>
<path d="M137.621 27.4778C137.86 31.5718 138.208 33.9548 136.406 36.2878C133.696 39.7968 128.456 38.5388 126.999 34.5988C125.688 31.0528 125.517 24.9538 129.299 22.8588C130.131 22.3924 131.069 22.1465 132.022 22.1445C132.976 22.1425 133.915 22.3844 134.748 22.8472C135.582 23.3101 136.284 23.9785 136.787 24.789C137.29 25.5995 137.577 26.5251 137.621 27.4778Z" fill="#FFC3BD"/>
<path d="M138.222 30.624C137.127 29.9823 136.171 29.1291 135.409 28.1143C134.647 27.0995 134.095 25.9433 133.785 24.713C132.585 24.997 126.604 27.749 124.765 24.713C122.926 21.677 125.24 19.896 128.681 21.765C127.159 19.079 128.543 17.765 133.325 17.649C138.107 17.533 137.464 20.305 137.464 20.305C137.464 20.305 141.084 18.729 142.364 21.505C143.847 24.695 141.111 30.142 138.222 30.624Z" fill="#263238"/>
<path d="M136.646 19.5722C136.69 19.5722 138.456 19.9972 140.492 17.9482C140.127 19.6962 136.966 20.8602 136.966 20.8602L136.646 19.5722Z" fill="#263238"/>
<path d="M139.022 25.5609C137.115 24.9019 134.806 27.7269 135.659 31.1379C136.512 34.5489 141.591 26.4489 139.022 25.5609Z" fill="#263238"/>
<path d="M140.101 30.8833C139.926 31.9 139.356 32.8061 138.515 33.4033C137.394 34.1853 136.384 33.2913 136.315 31.9973C136.257 30.8333 136.769 29.0233 138.076 28.7563C138.363 28.7027 138.658 28.7216 138.936 28.8114C139.214 28.9011 139.465 29.0588 139.666 29.2702C139.867 29.4815 140.012 29.7398 140.088 30.0215C140.164 30.3032 140.169 30.5995 140.101 30.8833Z" fill="#FFC3BD"/>
<path d="M126.151 125.863C127.144 113.777 134.428 80.3195 134.428 80.3195L119.934 79.3085C119.934 79.3085 114.345 112.52 113.917 125.124C113.471 138.229 118.742 167.355 118.742 167.355L125.693 166.564C125.693 166.564 125.154 137.999 126.151 125.863Z" fill="#98A2B3"/>
<path opacity="0.5" d="M126.151 125.863C127.144 113.777 134.428 80.3195 134.428 80.3195L119.934 79.3085C119.934 79.3085 114.345 112.52 113.917 125.124C113.471 138.229 118.742 167.355 118.742 167.355L125.693 166.564C125.693 166.564 125.154 137.999 126.151 125.863Z" fill="white"/>
<path opacity="0.2" d="M128.969 91.6503C126.047 95.3863 125.995 108.507 127.125 118.201C128.202 111.208 129.899 102.327 131.386 94.9243L128.969 91.6503Z" fill="black"/>
<path d="M127.756 79.8544C127.756 79.8544 129.32 115.229 131.065 127.209C132.975 140.328 137.826 169.001 137.826 169.001H145.394C145.394 169.001 144.149 141.995 143.15 129.106C142.013 114.425 141.982 80.8465 141.982 80.8465L127.756 79.8544Z" fill="#98A2B3"/>
<path opacity="0.5" d="M127.756 79.8544C127.756 79.8544 129.32 115.229 131.065 127.209C132.975 140.328 137.826 169.001 137.826 169.001H145.394C145.394 169.001 144.149 141.995 143.15 129.106C142.013 114.425 141.982 80.8465 141.982 80.8465L127.756 79.8544Z" fill="white"/>
<path d="M136.916 169.162H145.827V166.5L135.866 166.327L136.916 169.162Z" fill="#98A2B3"/>
<path d="M118.439 168.138L126.723 167.199L126.423 164.522L117.146 165.431L118.439 168.138Z" fill="#98A2B3"/>
<path d="M131.593 29.3546C131.633 29.6856 131.493 29.9746 131.273 30.0006C131.053 30.0266 130.849 29.7796 130.81 29.4486C130.771 29.1176 130.91 28.8286 131.13 28.8026C131.35 28.7766 131.554 29.0236 131.593 29.3546Z" fill="#263238"/>
<path d="M127.854 29.8038C127.894 30.1348 127.754 30.4238 127.534 30.4498C127.314 30.4758 127.11 30.2288 127.07 29.8978C127.03 29.5668 127.17 29.2778 127.39 29.2518C127.61 29.2258 127.814 29.4768 127.854 29.8038Z" fill="#263238"/>
<path d="M129.062 29.8261C128.789 30.8849 128.372 31.901 127.822 32.8461C128.068 32.9805 128.339 33.0598 128.618 33.0782C128.898 33.0967 129.177 33.054 129.438 32.9531L129.062 29.8261Z" fill="#ED847E"/>
<path d="M132.609 28.0058C132.575 28.0162 132.538 28.017 132.502 28.008C132.467 27.9991 132.435 27.9806 132.409 27.9548C132.244 27.7729 132.038 27.6328 131.808 27.5459C131.578 27.459 131.331 27.4277 131.086 27.4548C131.036 27.4634 130.983 27.4519 130.941 27.4228C130.898 27.3938 130.868 27.3493 130.857 27.2988C130.852 27.2734 130.852 27.2473 130.857 27.222C130.862 27.1967 130.872 27.1726 130.887 27.1512C130.902 27.1299 130.92 27.1117 130.942 27.0977C130.964 27.0837 130.988 27.0742 131.013 27.0698C131.322 27.0298 131.635 27.0645 131.928 27.171C132.22 27.2775 132.482 27.4527 132.692 27.6818C132.728 27.719 132.748 27.7686 132.748 27.8203C132.748 27.8719 132.728 27.9215 132.692 27.9588C132.669 27.9811 132.641 27.9973 132.609 28.0058Z" fill="#263238"/>
<path d="M132.477 33.421C131.994 33.4267 131.521 33.5484 131.095 33.7758C130.67 34.0031 130.306 34.3295 130.033 34.7273C130.019 34.7515 130.015 34.7804 130.022 34.8076C130.029 34.8348 130.047 34.8581 130.071 34.8724C130.095 34.8866 130.124 34.8907 130.151 34.8836C130.178 34.8766 130.202 34.859 130.216 34.8348C130.474 34.4703 130.814 34.1714 131.208 33.9623C131.603 33.7532 132.041 33.6397 132.487 33.631C132.501 33.6306 132.514 33.6275 132.527 33.6218C132.54 33.6161 132.551 33.608 132.56 33.598C132.57 33.5879 132.577 33.5761 132.582 33.5632C132.587 33.5503 132.589 33.5365 132.589 33.5227C132.589 33.5089 132.585 33.4953 132.58 33.4828C132.574 33.4702 132.566 33.4588 132.556 33.4493C132.546 33.4399 132.534 33.4325 132.521 33.4276C132.508 33.4227 132.495 33.4204 132.481 33.4208L132.477 33.421Z" fill="#263238"/>
<path d="M126.094 28.7102C126.055 28.7233 126.013 28.7233 125.973 28.7102C125.925 28.6923 125.885 28.6564 125.863 28.61C125.84 28.5636 125.837 28.5103 125.852 28.4612C125.946 28.1646 126.11 27.895 126.33 27.6753C126.551 27.4556 126.821 27.2923 127.117 27.1992C127.168 27.1879 127.22 27.1963 127.264 27.2227C127.309 27.2492 127.341 27.2916 127.354 27.3412C127.366 27.3913 127.358 27.4438 127.331 27.4879C127.305 27.532 127.263 27.5644 127.213 27.5782C126.98 27.6561 126.769 27.7882 126.596 27.9638C126.424 28.1394 126.296 28.3534 126.222 28.5882C126.212 28.617 126.195 28.643 126.173 28.6641C126.15 28.6853 126.124 28.7011 126.094 28.7102Z" fill="#263238"/>
<path d="M138.531 174.834C138.248 174.856 137.966 174.782 137.731 174.623C137.657 174.559 137.601 174.479 137.566 174.389C137.531 174.299 137.519 174.202 137.531 174.106C137.531 174.048 137.546 173.992 137.576 173.943C137.605 173.895 137.648 173.855 137.699 173.829C138.158 173.593 139.489 174.413 139.639 174.507C139.655 174.517 139.668 174.532 139.676 174.55C139.684 174.568 139.687 174.587 139.684 174.607C139.68 174.626 139.672 174.643 139.659 174.658C139.645 174.672 139.628 174.682 139.61 174.687C139.257 174.776 138.895 174.825 138.531 174.834ZM137.917 173.979C137.873 173.977 137.83 173.985 137.79 174.003C137.769 174.014 137.753 174.031 137.742 174.051C137.731 174.071 137.726 174.094 137.728 174.118C137.719 174.183 137.726 174.25 137.749 174.312C137.773 174.374 137.811 174.429 137.861 174.473C138.322 174.683 138.847 174.71 139.328 174.547C138.897 174.267 138.416 174.074 137.912 173.979H137.917Z" fill="#98A2B3"/>
<path d="M139.584 174.689C139.567 174.689 139.551 174.685 139.537 174.677C139.11 174.445 138.283 173.539 138.37 173.077C138.384 173.005 138.423 172.94 138.479 172.893C138.536 172.847 138.607 172.821 138.681 172.82C138.755 172.811 138.831 172.818 138.902 172.839C138.974 172.861 139.041 172.898 139.098 172.946C139.578 173.339 139.677 174.531 139.68 174.581C139.681 174.599 139.677 174.616 139.67 174.632C139.662 174.648 139.65 174.661 139.636 174.671C139.62 174.682 139.602 174.688 139.584 174.689ZM138.75 173.014H138.705C138.578 173.03 138.567 173.088 138.562 173.114C138.51 173.386 139.037 174.07 139.462 174.393C139.434 173.921 139.263 173.468 138.974 173.093C138.911 173.041 138.831 173.013 138.75 173.014Z" fill="#98A2B3"/>
<path d="M121.296 174.057L121.28 174.064C120.633 174.271 119.475 174.564 118.98 174.218C118.907 174.167 118.847 174.099 118.806 174.021C118.765 173.942 118.744 173.854 118.744 173.766C118.74 173.712 118.75 173.658 118.773 173.61C118.796 173.561 118.831 173.519 118.875 173.489C119.34 173.162 121.087 173.805 121.285 173.88C121.302 173.887 121.317 173.899 121.327 173.914C121.338 173.929 121.344 173.947 121.345 173.965C121.346 173.984 121.342 174.002 121.334 174.018C121.325 174.035 121.312 174.048 121.296 174.058V174.057ZM119.013 173.633L118.99 173.647C118.972 173.659 118.958 173.675 118.949 173.695C118.94 173.714 118.937 173.736 118.94 173.758C118.939 173.816 118.952 173.874 118.978 173.927C119.005 173.979 119.044 174.024 119.092 174.058C119.7 174.247 120.356 174.212 120.94 173.958C120.335 173.689 119.672 173.577 119.012 173.633H119.013Z" fill="#98A2B3"/>
<path d="M121.296 174.057C121.272 174.069 121.245 174.071 121.22 174.063C120.7 173.897 119.62 173.12 119.64 172.648C119.645 172.537 119.708 172.392 119.972 172.335C120.067 172.313 120.166 172.312 120.262 172.33C120.358 172.348 120.449 172.386 120.53 172.441C120.954 172.846 121.239 173.374 121.346 173.951C121.349 173.967 121.348 173.985 121.343 174.001C121.338 174.017 121.328 174.032 121.316 174.044C121.31 174.049 121.303 174.053 121.296 174.057ZM119.905 172.567C119.838 172.603 119.836 172.645 119.835 172.661C119.821 172.945 120.567 173.567 121.108 173.813C121.008 173.352 120.769 172.933 120.423 172.613C120.364 172.572 120.297 172.544 120.226 172.53C120.156 172.516 120.083 172.518 120.013 172.534C119.976 172.539 119.939 172.551 119.905 172.567Z" fill="#98A2B3"/>
<path d="M146.882 50.4776C146.777 52.0916 146.587 53.5946 146.39 55.1466C146.193 56.6986 145.928 58.2196 145.637 59.7546C145.061 62.8898 144.211 65.9683 143.096 68.9546L142.605 70.1116L142.481 70.4006L142.45 70.4726L142.399 70.5826L142.255 70.8676C142.065 71.2139 141.836 71.5379 141.574 71.8336C141.143 72.3187 140.639 72.7337 140.08 73.0636C139.628 73.333 139.153 73.5635 138.661 73.7526C137.023 74.3434 135.311 74.7009 133.573 74.8146C130.419 75.0502 127.247 74.9318 124.119 74.4616L124.232 71.3616L126.418 71.1146C127.151 71.0276 127.88 70.9146 128.605 70.8146C130.052 70.6016 131.484 70.3636 132.849 70.0466C134.112 69.7895 135.339 69.3826 136.505 68.8346C136.82 68.7024 137.095 68.4921 137.305 68.2236C137.318 68.1526 137.16 68.4636 137.346 67.9666L137.673 67.0106C138.474 64.2699 139.087 61.4777 139.507 58.6536C139.742 57.2156 139.943 55.7646 140.137 54.3096C140.331 52.8546 140.491 51.3696 140.644 49.9746L146.882 50.4776Z" fill="#FFC3BD"/>
<path d="M147.242 47.4813C149.265 50.8743 147.542 61.5383 147.542 61.5383L136.942 59.5793C136.942 59.5793 136.368 53.4792 138.386 48.7852C140.577 43.6762 144.791 43.3703 147.242 47.4813Z" fill="#98A2B3"/>
<path d="M121.264 80.9523L115.639 54.7883C115.369 53.671 114.743 52.6718 113.856 51.9412C112.968 51.2107 111.867 50.7885 110.719 50.7383H89.166C90.3145 50.7883 91.4156 51.2104 92.3033 51.9409C93.1909 52.6715 93.817 53.6708 94.087 54.7883L99.712 80.9523C99.982 82.0695 100.608 83.0688 101.495 83.7993C102.383 84.5298 103.484 84.952 104.632 85.0023H126.184C125.036 84.952 123.935 84.5298 123.047 83.7993C122.16 83.0688 121.534 82.0695 121.264 80.9523Z" fill="#263238"/>
<path opacity="0.7" d="M121.264 80.9523L115.639 54.7883C115.369 53.671 114.743 52.6718 113.856 51.9412C112.968 51.2107 111.867 50.7885 110.719 50.7383H89.166C90.3145 50.7883 91.4156 51.2104 92.3033 51.9409C93.1909 52.6715 93.817 53.6708 94.087 54.7883L99.712 80.9523C99.982 82.0695 100.608 83.0688 101.495 83.7993C102.383 84.5298 103.484 84.952 104.632 85.0023H126.184C125.036 84.952 123.935 84.5298 123.047 83.7993C122.16 83.0688 121.534 82.0695 121.264 80.9523Z" fill="#DC143C"/>
<path d="M89.1663 50.7383H110.718C109.615 50.7589 108.557 51.1819 107.743 51.9277C106.93 52.6735 106.417 53.6907 106.3 54.7883L100.709 115.588C100.593 116.686 100.08 117.703 99.266 118.449C98.4525 119.194 97.3947 119.617 96.2913 119.638H82.8393C82.3211 119.648 81.8069 119.547 81.331 119.341C80.8551 119.136 80.4286 118.832 80.0799 118.448C79.7313 118.065 79.4687 117.611 79.3095 117.118C79.1504 116.625 79.0985 116.103 79.1573 115.588L84.7493 54.7883C84.8656 53.6909 85.3786 52.6738 86.1919 51.928C87.0053 51.1823 88.063 50.7592 89.1663 50.7383Z" fill="#DC143C"/>
<path d="M92.6088 115.587C92.55 116.102 92.6019 116.623 92.7611 117.117C92.9202 117.61 93.1829 118.063 93.5315 118.447C93.8801 118.83 94.3066 119.135 94.7825 119.34C95.2584 119.545 95.7726 119.646 96.2908 119.637H74.7388C74.2206 119.647 73.7063 119.546 73.2303 119.34C72.7544 119.135 72.3278 118.831 71.9791 118.447C71.6304 118.064 71.3678 117.61 71.2087 117.117C71.0497 116.623 70.9979 116.102 71.0568 115.587H92.6088Z" fill="#263238"/>
<path opacity="0.7" d="M92.6088 115.587C92.55 116.102 92.6019 116.623 92.7611 117.117C92.9202 117.61 93.1829 118.063 93.5315 118.447C93.8801 118.83 94.3066 119.135 94.7825 119.34C95.2584 119.545 95.7726 119.646 96.2908 119.637H74.7388C74.2206 119.647 73.7063 119.546 73.2303 119.34C72.7544 119.135 72.3278 118.831 71.9791 118.447C71.6304 118.064 71.3678 117.61 71.2087 117.117C71.0497 116.623 70.9979 116.102 71.0568 115.587H92.6088Z" fill="#DC143C"/>
<g opacity="0.5">
<path opacity="0.5" d="M102.566 57.5502H87.9816C87.869 57.5517 87.7574 57.5293 87.6541 57.4844C87.5508 57.4395 87.4583 57.3731 87.3826 57.2897C87.307 57.2063 87.2499 57.1077 87.2153 57.0006C87.1806 56.8934 87.1692 56.7801 87.1817 56.6682C87.2076 56.4294 87.3195 56.2083 87.4965 56.046C87.6735 55.8837 87.9035 55.7913 88.1436 55.7862H102.726C102.838 55.7846 102.95 55.8071 103.053 55.852C103.156 55.8969 103.249 55.9632 103.325 56.0467C103.4 56.1301 103.457 56.2286 103.492 56.3358C103.527 56.443 103.538 56.5563 103.526 56.6682C103.5 56.9066 103.388 57.1275 103.212 57.2897C103.035 57.452 102.805 57.5446 102.566 57.5502Z" fill="white"/>
<path opacity="0.5" d="M102.131 62.3217H87.5471C87.4345 62.3232 87.3228 62.3008 87.2196 62.2559C87.1163 62.2109 87.0237 62.1446 86.9481 62.0612C86.8724 61.9778 86.8154 61.8792 86.7807 61.772C86.7461 61.6649 86.7346 61.5516 86.7471 61.4397C86.773 61.2009 86.8849 60.9797 87.062 60.8174C87.239 60.6551 87.469 60.5628 87.7091 60.5577H102.293C102.406 60.5561 102.517 60.5785 102.621 60.6234C102.724 60.6684 102.816 60.7347 102.892 60.8181C102.968 60.9016 103.025 61.0001 103.059 61.1073C103.094 61.2144 103.106 61.3277 103.093 61.4397C103.067 61.6785 102.956 61.8998 102.778 62.0621C102.601 62.2245 102.371 62.3167 102.131 62.3217Z" fill="white"/>
<path opacity="0.5" d="M98.1225 67.0922H87.1135C87.0009 67.0937 86.8892 67.0713 86.786 67.0264C86.6827 66.9815 86.5901 66.9151 86.5145 66.8317C86.4388 66.7483 86.3818 66.6497 86.3471 66.5425C86.3125 66.4354 86.301 66.3221 86.3135 66.2102C86.3394 65.9714 86.4513 65.7502 86.6284 65.588C86.8054 65.4257 87.0354 65.3333 87.2755 65.3282H98.2845C98.3971 65.3266 98.5088 65.349 98.612 65.3939C98.7153 65.4389 98.8079 65.5052 98.8835 65.5887C98.9592 65.6721 99.0162 65.7706 99.0509 65.8778C99.0855 65.9849 99.097 66.0982 99.0845 66.2102C99.0586 66.4489 98.9467 66.6701 98.7696 66.8324C98.5926 66.9947 98.3626 67.087 98.1225 67.0922Z" fill="white"/>
<path opacity="0.5" d="M90.4129 71.8617H86.6799C86.5673 71.8633 86.4557 71.8408 86.3524 71.7959C86.2491 71.751 86.1566 71.6846 86.0809 71.6012C86.0052 71.5178 85.9482 71.4192 85.9135 71.3121C85.8789 71.2049 85.8674 71.0916 85.8799 70.9797C85.9056 70.741 86.0173 70.5199 86.1942 70.3576C86.371 70.1953 86.6009 70.1029 86.8409 70.0977H90.5749C90.6875 70.0962 90.7992 70.1186 90.9024 70.1635C91.0057 70.2084 91.0983 70.2748 91.1739 70.3582C91.2496 70.4416 91.3066 70.5402 91.3413 70.6473C91.3759 70.7545 91.3874 70.8678 91.3749 70.9797C91.349 71.2185 91.2371 71.4396 91.06 71.6019C90.883 71.7642 90.653 71.8566 90.4129 71.8617Z" fill="white"/>
<path opacity="0.5" d="M100.829 76.6332H86.2414C86.1288 76.6347 86.0172 76.6123 85.9139 76.5674C85.8106 76.5225 85.7181 76.4561 85.6424 76.3727C85.5667 76.2893 85.5097 76.1907 85.4751 76.0836C85.4404 75.9764 85.4289 75.8631 85.4414 75.7512C85.4673 75.5124 85.5793 75.2913 85.7563 75.129C85.9333 74.9667 86.1633 74.8743 86.4034 74.8692H100.987C101.1 74.8676 101.212 74.8901 101.315 74.935C101.418 74.9799 101.511 75.0462 101.586 75.1297C101.662 75.2131 101.719 75.3116 101.754 75.4188C101.788 75.526 101.8 75.6393 101.787 75.7512C101.762 75.9893 101.65 76.2099 101.474 76.3721C101.298 76.5343 101.069 76.6271 100.829 76.6332Z" fill="white"/>
<path opacity="0.5" d="M94.6527 81.4037H85.8127C85.7001 81.4052 85.5884 81.3828 85.4852 81.3379C85.3819 81.293 85.2893 81.2266 85.2137 81.1432C85.138 81.0598 85.081 80.9612 85.0463 80.8541C85.0117 80.7469 85.0002 80.6336 85.0127 80.5217C85.0384 80.283 85.1501 80.0619 85.327 79.8996C85.5038 79.7373 85.7337 79.6449 85.9737 79.6397H94.8137C94.9263 79.6381 95.038 79.6606 95.1412 79.7055C95.2445 79.7504 95.3371 79.8168 95.4127 79.9002C95.4884 79.9836 95.5454 80.0822 95.5801 80.1893C95.6147 80.2965 95.6262 80.4098 95.6137 80.5217C95.5878 80.7603 95.476 80.9813 95.2992 81.1436C95.1224 81.3059 94.8926 81.3983 94.6527 81.4037Z" fill="white"/>
<path opacity="0.5" d="M99.9621 86.1742H85.3781C85.2655 86.1757 85.1539 86.1533 85.0506 86.1084C84.9473 86.0635 84.8548 85.9971 84.7791 85.9137C84.7035 85.8303 84.6464 85.7317 84.6118 85.6246C84.5771 85.5174 84.5657 85.4041 84.5781 85.2922C84.6041 85.0534 84.716 84.8323 84.893 84.67C85.07 84.5077 85.3 84.4153 85.5401 84.4102H100.125C100.238 84.4086 100.349 84.4311 100.453 84.476C100.556 84.5209 100.648 84.5872 100.724 84.6707C100.8 84.7541 100.857 84.8526 100.892 84.9598C100.926 85.067 100.938 85.1803 100.925 85.2922C100.899 85.5311 100.787 85.7524 100.61 85.9147C100.433 86.077 100.202 86.1693 99.9621 86.1742Z" fill="white"/>
<path opacity="0.5" d="M95.9536 90.9447H84.9446C84.8319 90.9463 84.7203 90.9238 84.617 90.8789C84.5137 90.834 84.4212 90.7677 84.3455 90.6842C84.2699 90.6008 84.2128 90.5023 84.1782 90.3951C84.1435 90.2879 84.1321 90.1746 84.1445 90.0627C84.1705 89.824 84.2824 89.6028 84.4594 89.4405C84.6364 89.2782 84.8665 89.1859 85.1066 89.1807H96.1155C96.2282 89.1792 96.3398 89.2016 96.4431 89.2465C96.5464 89.2914 96.6389 89.3578 96.7146 89.4412C96.7902 89.5246 96.8473 89.6232 96.8819 89.7303C96.9166 89.8375 96.928 89.9508 96.9155 90.0627C96.8896 90.3015 96.7777 90.5226 96.6007 90.6849C96.4237 90.8472 96.1937 90.9396 95.9536 90.9447Z" fill="white"/>
<path opacity="0.5" d="M88.244 95.7152H84.508C84.3954 95.7167 84.2838 95.6943 84.1805 95.6494C84.0772 95.6045 83.9847 95.5381 83.909 95.4547C83.8334 95.3713 83.7763 95.2727 83.7417 95.1656C83.707 95.0584 83.6955 94.9451 83.708 94.8332C83.734 94.5944 83.8459 94.3733 84.0229 94.211C84.1999 94.0487 84.4299 93.9563 84.67 93.9512H88.408C88.5206 93.9496 88.6323 93.9721 88.7356 94.017C88.8388 94.0619 88.9314 94.1282 89.007 94.2117C89.0827 94.2951 89.1398 94.3936 89.1744 94.5008C89.2091 94.608 89.2205 94.7213 89.208 94.8332C89.182 95.0723 89.0699 95.2937 88.8924 95.456C88.715 95.6184 88.4845 95.7105 88.244 95.7152Z" fill="white"/>
<path opacity="0.5" d="M98.6604 100.487H84.0764C83.9638 100.488 83.8521 100.466 83.7489 100.421C83.6456 100.376 83.553 100.31 83.4774 100.226C83.4017 100.143 83.3447 100.044 83.31 99.9371C83.2754 99.8299 83.2639 99.7166 83.2764 99.6047C83.3023 99.366 83.4142 99.1448 83.5912 98.9825C83.7683 98.8202 83.9983 98.7279 84.2384 98.7227H98.8224C98.935 98.7212 99.0466 98.7436 99.1499 98.7885C99.2532 98.8334 99.3457 98.8998 99.4214 98.9832C99.4971 99.0666 99.5541 99.1652 99.5888 99.2723C99.6234 99.3795 99.6349 99.4928 99.6224 99.6047C99.5965 99.8435 99.4845 100.065 99.3075 100.227C99.1305 100.389 98.9005 100.482 98.6604 100.487Z" fill="white"/>
<path opacity="0.5" d="M92.4828 105.257H83.6428C83.5302 105.259 83.4185 105.236 83.3153 105.191C83.212 105.147 83.1194 105.08 83.0438 104.997C82.9681 104.913 82.9111 104.815 82.8764 104.708C82.8418 104.6 82.8303 104.487 82.8428 104.375C82.8685 104.136 82.9804 103.915 83.1574 103.753C83.3345 103.59 83.5646 103.498 83.8048 103.493H92.6438C92.7564 103.492 92.8681 103.514 92.9713 103.559C93.0746 103.604 93.1672 103.67 93.2428 103.754C93.3185 103.837 93.3755 103.936 93.4102 104.043C93.4448 104.15 93.4563 104.263 93.4438 104.375C93.4179 104.614 93.3061 104.835 93.1293 104.997C92.9525 105.159 92.7227 105.252 92.4828 105.257Z" fill="white"/>
<path opacity="0.5" d="M97.7922 110.028H83.2082C83.0956 110.029 82.984 110.007 82.8807 109.962C82.7774 109.917 82.6849 109.851 82.6092 109.767C82.5335 109.684 82.4765 109.585 82.4418 109.478C82.4072 109.371 82.3957 109.258 82.4082 109.146C82.4341 108.907 82.5461 108.686 82.7231 108.524C82.9001 108.361 83.1301 108.269 83.3702 108.264H97.9522C98.0648 108.262 98.1765 108.285 98.2798 108.33C98.383 108.374 98.4756 108.441 98.5512 108.524C98.6269 108.608 98.6839 108.706 98.7186 108.813C98.7533 108.92 98.7647 109.034 98.7522 109.146C98.7263 109.384 98.6147 109.605 98.4381 109.767C98.2615 109.93 98.032 110.022 97.7922 110.028Z" fill="white"/>
</g>
<path d="M125.503 71.6992L122.337 68.9482L120.853 74.0122C120.853 74.0122 124.069 75.7562 125.183 74.1552L125.503 71.6992Z" fill="#FFC3BD"/>
<path d="M118.887 68.75L117.857 72.994L120.849 74.0139L122.333 68.9489L118.887 68.75Z" fill="#FFC3BD"/>
</svg>
