<svg width="17" height="17" viewBox="0 0 17 17" fill="none" xmlns="http://www.w3.org/2000/svg">
<path d="M1.0625 2.125C1.0625 1.56141 1.28638 1.02091 1.6849 0.622398C2.08341 0.223883 2.62391 0 3.1875 0L9.5625 0C10.1261 0 10.6666 0.223883 11.0651 0.622398C11.4636 1.02091 11.6875 1.56141 11.6875 2.125V10.625C12.2511 10.625 12.7916 10.8489 13.1901 11.2474C13.5886 11.6459 13.8125 12.1864 13.8125 12.75V13.2812C13.8125 13.4221 13.8685 13.5573 13.9681 13.6569C14.0677 13.7565 14.2029 13.8125 14.3438 13.8125C14.4846 13.8125 14.6198 13.7565 14.7194 13.6569C14.819 13.5573 14.875 13.4221 14.875 13.2812V8.5H14.3438C14.2029 8.5 14.0677 8.44403 13.9681 8.3444C13.8685 8.24477 13.8125 8.10965 13.8125 7.96875V4.64844C13.8125 4.50754 13.8685 4.37242 13.9681 4.27279C14.0677 4.17316 14.2029 4.11719 14.3438 4.11719H15.9322C15.9205 3.61144 15.8759 3.16731 15.7186 2.81881C15.6344 2.61618 15.4878 2.4457 15.3 2.33219C15.1045 2.21531 14.807 2.125 14.3438 2.125C14.2029 2.125 14.0677 2.06903 13.9681 1.9694C13.8685 1.86977 13.8125 1.73465 13.8125 1.59375C13.8125 1.45285 13.8685 1.31773 13.9681 1.2181C14.0677 1.11847 14.2029 1.0625 14.3438 1.0625C14.943 1.0625 15.4424 1.17937 15.844 1.4195C16.2509 1.66175 16.5176 2.00494 16.6876 2.38319C17.0011 3.07912 17 3.93975 17 4.59425V7.96875C17 8.10965 16.944 8.24477 16.8444 8.3444C16.7448 8.44403 16.6096 8.5 16.4688 8.5H15.9375V13.2812C15.9375 13.7039 15.7696 14.1093 15.4707 14.4082C15.1718 14.7071 14.7664 14.875 14.3438 14.875C13.9211 14.875 13.5157 14.7071 13.2168 14.4082C12.9179 14.1093 12.75 13.7039 12.75 13.2812V12.75C12.75 12.4682 12.6381 12.198 12.4388 11.9987C12.2395 11.7994 11.9693 11.6875 11.6875 11.6875V15.9375H12.2188C12.3596 15.9375 12.4948 15.9935 12.5944 16.0931C12.694 16.1927 12.75 16.3279 12.75 16.4688C12.75 16.6096 12.694 16.7448 12.5944 16.8444C12.4948 16.944 12.3596 17 12.2188 17H0.53125C0.390354 17 0.255228 16.944 0.1556 16.8444C0.0559708 16.7448 0 16.6096 0 16.4688C0 16.3279 0.0559708 16.1927 0.1556 16.0931C0.255228 15.9935 0.390354 15.9375 0.53125 15.9375H1.0625V2.125ZM3.71875 2.125C3.57785 2.125 3.44273 2.18097 3.3431 2.2806C3.24347 2.38023 3.1875 2.51535 3.1875 2.65625V7.96875C3.1875 8.10965 3.24347 8.24477 3.3431 8.3444C3.44273 8.44403 3.57785 8.5 3.71875 8.5H9.03125C9.17215 8.5 9.30727 8.44403 9.4069 8.3444C9.50653 8.24477 9.5625 8.10965 9.5625 7.96875V2.65625C9.5625 2.51535 9.50653 2.38023 9.4069 2.2806C9.30727 2.18097 9.17215 2.125 9.03125 2.125H3.71875Z" fill="#104573"/>
</svg>
