<svg width="53" height="53" viewBox="0 0 53 53" fill="none" xmlns="http://www.w3.org/2000/svg">
<path d="M36.4375 45.0169L32.1478 40.7272L29.8125 43.0625L36.4375 49.6875L49.6875 36.4375L47.3522 34.1022L36.4375 45.0169ZM14.9062 28.1562H26.5V31.4688H14.9062V28.1562ZM14.9062 19.875H34.7812V23.1875H14.9062V19.875ZM14.9062 11.5938H34.7812V14.9062H14.9062V11.5938Z" fill="black"/>
<path d="M26.5 49.6875H9.9375C8.11066 49.6875 6.625 48.2018 6.625 46.375V6.625C6.625 4.79816 8.11066 3.3125 9.9375 3.3125H39.75C41.5768 3.3125 43.0625 4.79816 43.0625 6.625V31.4688H39.75V6.625H9.9375V46.375H26.5V49.6875Z" fill="black"/>
</svg>
