<svg width="756" height="612" viewBox="0 0 756 612" fill="none" xmlns="http://www.w3.org/2000/svg">
<g id="No Message">
<path id="Fill 1" fill-rule="evenodd" clip-rule="evenodd" d="M658.195 551.14C658.195 575.229 563.517 594.755 446.727 594.755C329.935 594.755 235.258 575.229 235.258 551.14C235.258 527.051 329.935 507.524 446.727 507.524C563.517 507.524 658.195 527.051 658.195 551.14Z" fill="#F2F3FB"/>
<path id="Fill 3" fill-rule="evenodd" clip-rule="evenodd" d="M601.203 327.776H322.49V246.333C322.49 211.019 351.021 182.392 386.219 182.392H544.24C579.439 182.392 607.972 211.019 607.972 246.333V320.987C607.972 324.736 604.942 327.776 601.203 327.776Z" fill="#BEC0D5"/>
<path id="Fill 5" fill-rule="evenodd" clip-rule="evenodd" d="M600.042 314.559H314.559V245.549C314.559 210.668 343.09 182.392 378.289 182.392H536.31C571.508 182.392 600.042 210.668 600.042 245.549V314.559Z" fill="#D8DBE8"/>
<path id="Fill 7" fill-rule="evenodd" clip-rule="evenodd" d="M378 190.322C347.344 190.322 322.49 214.904 322.49 245.23V314.559H433.511V245.23C433.511 214.904 408.659 190.322 378 190.322Z" fill="#FEFEFE"/>
<path id="Fill 9" fill-rule="evenodd" clip-rule="evenodd" d="M314.559 243.189V245.832C314.559 244.947 314.596 244.069 314.628 243.189H314.559Z" fill="#E7EAF0"/>
<path id="Fill 11" fill-rule="evenodd" clip-rule="evenodd" d="M592.183 243.189H592.112C592.144 244.069 592.183 244.947 592.183 245.832V243.189Z" fill="#E7EAF0"/>
<path id="Fill 13" fill-rule="evenodd" clip-rule="evenodd" d="M534.53 182.392H378.5C378.331 182.392 378.167 182.402 378 182.404C410.998 182.674 437.668 209.558 437.668 242.697V243.189H597.399C596.203 209.41 568.522 182.392 534.53 182.392Z" fill="#E7EAF0"/>
<path id="Fill 15" fill-rule="evenodd" clip-rule="evenodd" d="M597.399 325.133H283.291C280.119 325.133 277.553 322.766 277.553 319.845C277.553 316.925 280.119 314.559 283.291 314.559H597.399V325.133Z" fill="#D8DBE8"/>
<mask id="mask0_414_803" style="mask-type:luminance" maskUnits="userSpaceOnUse" x="0" y="0" width="756" height="611">
<path id="Clip 18" fill-rule="evenodd" clip-rule="evenodd" d="M0 610.615H756V0H0V610.615Z" fill="white"/>
</mask>
<g mask="url(#mask0_414_803)">
<path id="Fill 17" fill-rule="evenodd" clip-rule="evenodd" d="M438.797 552.462H462.587V325.133H438.797V552.462Z" fill="#F0F1F5"/>
<path id="Fill 19" fill-rule="evenodd" clip-rule="evenodd" d="M446.728 552.462H462.588V325.133H446.728V552.462Z" fill="#BEC0D5"/>
<path id="Fill 20" fill-rule="evenodd" clip-rule="evenodd" d="M478.602 340.993H422.781C417.027 340.993 412.364 336.651 412.364 331.293V325.133H489.021V331.293C489.021 336.651 484.356 340.993 478.602 340.993Z" fill="#BEC0D5"/>
<path id="Fill 21" fill-rule="evenodd" clip-rule="evenodd" d="M412.364 330.42H489.021V325.133H412.364V330.42Z" fill="#F0F1F5"/>
<path id="Fill 22" fill-rule="evenodd" clip-rule="evenodd" d="M450.692 536.601C429.524 536.601 412.364 545.417 412.364 556.29C412.364 567.164 429.524 568.322 450.692 568.322C471.861 568.322 489.021 567.164 489.021 556.29C489.021 545.417 471.861 536.601 450.692 536.601Z" fill="#BEC0D5"/>
<path id="Fill 23" fill-rule="evenodd" clip-rule="evenodd" d="M440.21 561.601C447.937 552.668 446.676 542.296 446.616 536.601C425.306 536.601 412.364 544.986 412.364 555.418C412.364 561.071 417.438 563.987 425.48 565.471C425.48 565.471 435.517 567.028 440.21 561.601Z" fill="#F0F1F5"/>
<path id="Fill 24" fill-rule="evenodd" clip-rule="evenodd" d="M517.871 278.776C516.466 286.679 508.918 291.949 501.014 290.542C493.112 289.138 487.841 281.591 489.248 273.687C490.652 265.784 498.199 260.515 506.105 261.919C514.008 263.325 519.275 270.872 517.871 278.776Z" fill="#BEC0D5"/>
<path id="Fill 25" fill-rule="evenodd" clip-rule="evenodd" d="M515.02 276.762C513.268 283.092 506.714 286.8 500.386 285.049C494.056 283.295 490.345 276.743 492.099 270.413C493.851 264.084 500.405 260.373 506.735 262.127C513.063 263.881 516.774 270.432 515.02 276.762Z" fill="#DC143C"/>
<path id="Fill 26" fill-rule="evenodd" clip-rule="evenodd" d="M559.822 202.141L526.682 193.155C523.842 192.383 520.872 194.03 520.084 196.812L515.534 212.894L513.399 220.444L496.951 278.577L502.92 280.196L519.366 222.061L551.704 230.829C559.764 233.016 568.182 228.348 570.415 220.459C572.648 212.568 567.88 204.325 559.822 202.141Z" fill="#DC143C"/>
<path id="Stroke 27" d="M198.251 62.4123C195.595 61.7911 192.949 61.2519 190.321 60.7972" stroke="#9D9D9D"/>
<path id="Stroke 28" d="M172.172 60.923C87.3309 57.7788 21.1443 114.126 21.1465 169.02C21.1465 224.255 68.9131 290.388 144.211 275.395C219.508 260.403 225.336 211.906 294.806 211.906C337.355 211.906 389.928 239.511 415.007 254.279" stroke="#D7DAE9" stroke-dasharray="8.08 8.08"/>
<path id="Stroke 29" d="M422.937 259.049C428.004 262.327 430.867 264.336 430.867 264.336" stroke="#9D9D9D"/>
<g id="Stroke 30">
<path fill-rule="evenodd" clip-rule="evenodd" d="M758.643 168.981C758.643 168.981 754.272 169.828 751.354 167.979C746.208 164.715 748.125 160.403 744.213 158.443C739.352 156.004 736.83 161.024 732.171 158.687C726.696 155.941 730.305 151.466 725.138 148.874C719.728 146.161 715.754 150.51 710.654 147.951C707.998 146.618 707.657 145.318 706.526 142.852C705.304 140.194 705.541 137.882 702.204 136.22C697.813 134.034 694.551 138.667 689.142 135.954C683.974 133.361 687.582 128.886 682.107 126.14C677.448 123.803 674.927 128.824 670.065 126.386C666.154 124.424 668.21 119.906 662.924 116.849C658.606 114.353 655.148 116.623 652.918 116.295C649.015 115.722 647.622 111.021 647.622 111.021" fill="#DC143C"/>
<path d="M758.643 168.981C758.643 168.981 754.272 169.828 751.354 167.979C746.208 164.715 748.125 160.403 744.213 158.443C739.352 156.004 736.83 161.024 732.171 158.687C726.696 155.941 730.305 151.466 725.138 148.874C719.728 146.161 715.754 150.51 710.654 147.951C707.998 146.618 707.657 145.318 706.526 142.852C705.304 140.194 705.541 137.882 702.204 136.22C697.813 134.034 694.551 138.667 689.142 135.954C683.974 133.361 687.582 128.886 682.107 126.14C677.448 123.803 674.927 128.824 670.065 126.386C666.154 124.424 668.21 119.906 662.924 116.849C658.606 114.353 655.148 116.623 652.918 116.295C649.015 115.722 647.622 111.021 647.622 111.021" stroke="#DC143C"/>
</g>
<g id="Stroke 31">
<path fill-rule="evenodd" clip-rule="evenodd" d="M179.748 438.797C179.748 438.797 180.058 434.266 182.756 431.927C187.518 427.804 191.448 430.911 194.532 427.629C198.366 423.549 193.866 419.645 197.539 415.735C201.854 411.142 205.496 415.957 209.57 411.618C213.835 407.082 210.423 401.942 214.446 397.663C216.538 395.435 217.973 395.47 220.824 395.058C223.898 394.615 226.22 395.507 228.841 392.704C232.284 389.013 228.387 384.492 232.65 379.954C236.727 375.617 240.368 380.432 244.683 375.839C248.356 371.928 243.858 368.025 247.69 363.945C250.773 360.663 254.88 363.964 259.465 359.645C263.211 356.117 261.804 352.074 262.745 349.977C264.394 346.308 269.622 346.28 269.622 346.28" fill="#DC143C"/>
<path d="M179.748 438.797C179.748 438.797 180.058 434.266 182.756 431.927C187.518 427.804 191.448 430.911 194.532 427.629C198.366 423.549 193.866 419.645 197.539 415.735C201.854 411.142 205.496 415.957 209.57 411.618C213.835 407.082 210.423 401.942 214.446 397.663C216.538 395.435 217.973 395.47 220.824 395.058C223.898 394.615 226.22 395.507 228.841 392.704C232.284 389.013 228.387 384.492 232.65 379.954C236.727 375.617 240.368 380.432 244.683 375.839C248.356 371.928 243.858 368.025 247.69 363.945C250.773 360.663 254.88 363.964 259.465 359.645C263.211 356.117 261.804 352.074 262.745 349.977C264.394 346.308 269.622 346.28 269.622 346.28" stroke="#DC143C"/>
</g>
<path id="Fill 32" fill-rule="evenodd" clip-rule="evenodd" d="M198.252 81.944C192.205 80.537 186.357 74.014 184.837 72.8931L171.819 72.3373L183.003 65.183C183.203 59.9408 185.616 54.6169 190.322 50.2238C190.359 55.563 191.473 61.0545 192.769 66.568C194.065 72.0815 195.93 77.2355 198.252 81.944Z" fill="#282526"/>
<path id="Fill 34" fill-rule="evenodd" clip-rule="evenodd" d="M186.549 71.3706L186.05 71.3407C185.645 70.4988 185.315 69.6184 185.035 68.7273C185.405 69.644 185.928 70.5287 186.549 71.3706Z" fill="#282526"/>
<path id="Fill 35" fill-rule="evenodd" clip-rule="evenodd" d="M207.503 81.9361C204.86 81.9441 200.895 81.9441 198.251 81.9361C195.918 77.302 193.597 71.4193 192.297 65.9904C190.998 60.5593 190.356 55.4811 190.321 50.2238C192.327 48.3845 195.624 46.3855 198.251 44.9371C198.012 51.1651 199.341 58.2801 200.895 64.7622C202.447 71.2443 204.493 76.5876 207.503 81.9361Z" fill="#F5D30D"/>
<path id="Fill 36" fill-rule="evenodd" clip-rule="evenodd" d="M216.756 80.6224C213.715 81.2602 210.35 81.8734 207.478 81.9441C204.232 76.6723 202.047 70.7692 200.374 64.3802C198.698 57.9912 197.995 51.0756 198.253 44.9371C200.811 43.6657 203.657 43.1413 206.643 42.2937C206.226 48.779 206.864 55.5554 208.643 62.3383C210.421 69.1211 214.113 75.3357 216.756 80.6224Z" fill="#282526"/>
<path id="Fill 37" fill-rule="evenodd" clip-rule="evenodd" d="M226.006 76.6573C226.006 76.6573 224.685 77.979 222.041 79.3007C219.398 80.6224 218.076 80.6224 216.755 80.6224C213.495 75.2071 209.753 67.7374 208.127 61.0652C206.497 54.3929 205.913 47.727 206.293 41.3474C206.739 41.2063 207.19 41.0863 207.66 40.9621C210.419 40.2315 215.442 39.7851 218.076 39.6503C217.678 46.2587 217.841 51.7679 219.398 58.1538C220.955 64.5419 222.952 71.4063 226.006 76.6573Z" fill="#F5D30D"/>
<path id="Fill 38" fill-rule="evenodd" clip-rule="evenodd" d="M232.616 71.3706C230.56 73.1453 228.659 75.3354 226.008 76.6573C223.015 71.3311 220.188 65.3641 218.661 58.8846C217.132 52.4072 216.55 45.9555 216.819 39.7323C219.734 39.5294 222.534 39.7088 225.125 40.2106C225.121 45.5647 225.744 51.0575 227.047 56.5845C228.35 62.1094 230.238 66.668 232.616 71.3706Z" fill="#282526"/>
<path id="Fill 39" fill-rule="evenodd" clip-rule="evenodd" d="M232.615 71.3706C230.257 66.6703 227.886 61.5304 226.593 56.0108C225.3 50.489 224.681 45.0014 224.685 39.6503C232.598 41.1417 238.63 45.6842 240.17 52.2599C241.709 58.8357 238.909 65.9555 232.615 71.3706Z" fill="#282526"/>
<path id="Fill 40" fill-rule="evenodd" clip-rule="evenodd" d="M221.247 47.4526C214.384 48.8028 206.809 39.3036 204.329 26.2361C201.848 13.1665 205.401 1.47834 212.263 0.128178C219.126 -1.22407 226.7 8.27713 229.182 21.3447C231.662 34.4122 228.11 46.1024 221.247 47.4526Z" fill="#98B4DD"/>
<path id="Fill 41" fill-rule="evenodd" clip-rule="evenodd" d="M227.788 47.706C222.798 53.042 210.854 49.619 201.111 40.0606C191.368 30.5021 187.515 18.4284 192.504 13.0902C197.496 7.75639 209.439 11.1772 219.183 20.7357C228.926 30.2941 232.778 42.37 227.788 47.706Z" fill="#B9C7E5"/>
<path id="Fill 42" fill-rule="evenodd" clip-rule="evenodd" d="M241.834 44.9371C239.473 41.837 235.957 39.4845 231.688 38.5185C231.109 38.3858 230.546 38.2796 229.972 38.2122C234.128 34.9713 239.826 33.5499 245.491 34.8324C250.25 35.9107 254.062 38.688 256.405 42.2884C251.129 41.0937 245.853 42.2108 241.834 44.9371Z" fill="#1A1E1D"/>
<path id="Fill 43" fill-rule="evenodd" clip-rule="evenodd" d="M258.55 53.5045C256.429 61.824 248.108 67.1 239.449 65.9193C238.886 65.8507 238.334 65.7426 237.765 65.6095L237.724 65.5991C228.541 63.4164 222.928 54.4982 225.183 45.6549C226.08 42.1417 228.082 39.1877 230.732 37.007C231.294 37.0756 231.846 37.1837 232.414 37.3167C236.598 38.3021 240.044 40.6969 242.36 43.8526C246.298 41.0752 251.469 39.9381 256.6 41.1459L256.641 41.1563C258.849 44.7361 259.669 49.1244 258.55 53.5045Z" fill="#F5D30D"/>
<path id="Fill 44" fill-rule="evenodd" clip-rule="evenodd" d="M245.408 35.4261C246.107 31.325 251.886 26.7714 256.26 26.4336L256.403 28.074C252.769 28.3545 247.695 32.4852 247.151 35.6853L245.408 35.4261Z" fill="#1A1E1D"/>
<path id="Fill 45" fill-rule="evenodd" clip-rule="evenodd" d="M258.92 29.8891C258.47 31.2775 256.982 32.041 255.593 31.5912C254.205 31.1438 253.441 29.6532 253.891 28.2648C254.339 26.8763 255.829 26.1128 257.218 26.5627C258.606 27.0101 259.37 28.5006 258.92 29.8891Z" fill="#1A1E1D"/>
<path id="Fill 46" fill-rule="evenodd" clip-rule="evenodd" d="M243.189 35.6853C245.102 32.3953 242.175 26.1526 238.997 23.7902L237.902 24.8988C240.547 26.8634 243.189 31.7203 241.689 35.0273L243.189 35.6853Z" fill="#1A1E1D"/>
<path id="Fill 47" fill-rule="evenodd" clip-rule="evenodd" d="M235.387 22.9781C234.938 24.3665 235.701 25.857 237.087 26.3045C238.478 26.7543 239.968 25.9908 240.416 24.6024C240.866 23.2139 240.102 21.7234 238.714 21.276C237.325 20.8261 235.835 21.5896 235.387 22.9781Z" fill="#1A1E1D"/>
<path id="Fill 48" fill-rule="evenodd" clip-rule="evenodd" d="M237.75 48.8382C237.056 51.6728 234.193 53.4082 231.358 52.7144C228.523 52.0187 226.788 49.1591 227.482 46.3226C228.179 43.488 231.039 41.7527 233.874 42.4464C236.708 43.1421 238.444 46.0036 237.75 48.8382Z" fill="#1A1E1D"/>
<path id="Fill 49" fill-rule="evenodd" clip-rule="evenodd" d="M240.392 48.8391C239.698 51.6727 236.837 53.4081 234.001 52.7144C231.165 52.0207 229.429 49.1599 230.125 46.324C230.819 43.4881 233.68 41.7527 236.516 42.4464C239.352 43.1424 241.088 46.0031 240.392 48.8391Z" fill="#FEFEFE"/>
<path id="Fill 50" fill-rule="evenodd" clip-rule="evenodd" d="M232.693 46.951C232.344 48.3693 233.211 49.8011 234.632 50.1469C236.048 50.4954 237.477 49.6255 237.825 48.2099C238.174 46.7917 237.307 45.3599 235.889 45.0141C234.47 44.6656 233.041 45.5328 232.693 46.951Z" fill="#1A1E1D"/>
<path id="Fill 51" fill-rule="evenodd" clip-rule="evenodd" d="M235.295 45.9233C235.126 46.6158 235.552 47.3163 236.244 47.4855C236.937 47.6573 237.637 47.2317 237.807 46.5365C237.978 45.844 237.553 45.1461 236.86 44.9743C236.165 44.8051 235.465 45.2281 235.295 45.9233Z" fill="#FEFEFE"/>
<path id="Fill 52" fill-rule="evenodd" clip-rule="evenodd" d="M240.698 48.9664C240.004 51.8013 241.738 54.6632 244.575 55.357C247.408 56.0528 250.27 54.3172 250.965 51.4823C251.659 48.6455 249.926 45.7856 247.089 45.0898C244.256 44.396 241.392 46.1315 240.698 48.9664Z" fill="#1A1E1D"/>
<path id="Fill 53" fill-rule="evenodd" clip-rule="evenodd" d="M243.304 50.6019C242.782 52.7286 244.085 54.874 246.212 55.396C248.337 55.9162 250.482 54.6147 251.004 52.488C251.526 50.3612 250.223 48.2158 248.098 47.6956C245.971 47.1736 243.826 48.4751 243.304 50.6019Z" fill="#FEFEFE"/>
<path id="Fill 54" fill-rule="evenodd" clip-rule="evenodd" d="M248.4 50.8532C248.051 52.2714 246.622 53.1386 245.202 52.7901C243.786 52.4443 242.919 51.0126 243.265 49.5943C243.613 48.1761 245.045 47.3089 246.46 47.6574C247.878 48.0032 248.745 49.435 248.4 50.8532Z" fill="#1A1E1D"/>
<path id="Fill 55" fill-rule="evenodd" clip-rule="evenodd" d="M245.738 49.1807C245.569 49.8733 244.869 50.2989 244.173 50.1297C243.481 49.9579 243.055 49.26 243.227 48.5648C243.396 47.8723 244.097 47.4467 244.789 47.6185C245.482 47.7877 245.907 48.4882 245.738 49.1807Z" fill="#FEFEFE"/>
<path id="Fill 56" fill-rule="evenodd" clip-rule="evenodd" d="M238.706 60.7302C238.624 60.7199 238.544 60.7062 238.463 60.6941C237.091 60.462 235.91 59.8703 235.376 59.1532C235.157 58.8539 235.253 58.455 235.588 58.2589C235.925 58.0646 236.379 58.1471 236.601 58.4464C236.855 58.7869 237.628 59.2392 238.737 59.4266C239.455 59.5556 240.821 59.6365 242.037 58.8797C242.366 58.6751 242.82 58.7439 243.054 59.0362C243.288 59.3269 243.208 59.7293 242.877 59.9357C241.711 60.658 240.236 60.9383 238.706 60.7302Z" fill="#1A1E1D"/>
<path id="Fill 57" fill-rule="evenodd" clip-rule="evenodd" d="M153.135 336.721C152.583 334.961 150.187 332.821 145.016 334.572C141.313 335.824 135.368 339.354 132.488 341.901C133.983 338.201 135.468 331.023 135.468 326.943C135.468 321.288 132.607 319.846 130.83 319.846C129.058 319.846 126.361 321.563 126.361 327.218C126.361 331.279 127.751 338.258 129.186 341.896C126.27 339.273 120.175 335.582 116.448 334.32C111.277 332.574 109.082 334.961 108.53 336.721C107.984 338.476 108.717 341.678 113.883 343.424C117.587 344.681 124.389 345.464 128.161 345.16C124.862 347.243 119.61 352.139 117.305 355.436C114.116 360.014 115.614 362.931 117.049 364.018C118.489 365.104 121.637 365.37 124.83 360.792C127.117 357.509 129.937 351.014 130.83 347.186C131.709 351.095 134.557 357.812 136.857 361.114C140.051 365.688 143.176 365.104 144.616 364.018C146.051 362.931 147.262 359.895 144.073 355.317C141.782 352.039 136.716 347.238 133.5 345.17C137.34 345.511 144.356 344.762 148.082 343.505C153.248 341.759 153.681 338.476 153.135 336.721Z" fill="#DC143C"/>
<path id="Fill 58" fill-rule="evenodd" clip-rule="evenodd" d="M185.033 213.152C185.074 212.215 184.237 210.75 181.271 210.634C179.147 210.55 175.463 211.142 173.524 211.827C174.964 210.337 177.031 207.186 177.769 205.24C178.8 202.542 177.596 201.324 176.688 201C175.781 200.672 174.09 200.996 173.058 203.695C172.32 205.633 171.759 209.22 171.833 211.218C170.819 209.429 168.368 206.55 166.694 205.26C164.363 203.475 162.8 204.211 162.202 204.952C161.599 205.689 161.397 207.35 163.724 209.136C165.39 210.414 168.731 212.039 170.711 212.588C168.645 212.976 165.064 214.345 163.291 215.495C160.82 217.092 161.059 218.762 161.595 219.543C162.132 220.328 163.699 221.032 166.166 219.435C167.931 218.289 170.559 215.707 171.714 214.045C171.45 216.071 171.689 219.803 172.262 221.801C173.067 224.572 174.774 224.868 175.707 224.612C176.639 224.36 177.814 223.134 177.014 220.36C176.437 218.374 174.717 215.154 173.446 213.577C175.352 214.442 179.081 215.379 181.213 215.463C184.179 215.579 184.996 214.089 185.033 213.152Z" fill="#DFE1EC"/>
<path id="Fill 59" fill-rule="evenodd" clip-rule="evenodd" d="M440.586 113.967C439.699 113.4 437.837 113.381 436.143 116.162C434.924 118.155 433.524 122.033 433.152 124.282C432.482 122.058 430.54 118.294 429.058 116.483C427 113.969 425.185 114.442 424.382 115.131C423.582 115.817 422.989 117.626 425.045 120.14C426.522 121.939 429.687 124.502 431.661 125.558C429.39 125.528 425.294 126.254 423.154 127.14C420.186 128.367 420.062 130.284 420.453 131.277C420.847 132.268 422.34 133.407 425.31 132.177C427.437 131.296 430.796 129.002 432.386 127.409C431.654 129.611 431.064 133.826 431.224 136.183C431.448 139.455 433.188 140.168 434.231 140.093C435.274 140.018 436.792 138.912 436.568 135.642C436.408 133.294 435.315 129.316 434.327 127.273C436.147 128.667 439.875 130.544 442.116 131.115C445.221 131.91 446.419 130.434 446.673 129.396C446.925 128.356 446.367 126.535 443.261 125.741C441.034 125.174 437.005 125.008 434.8 125.338C436.657 123.998 439.552 120.946 440.776 118.94C442.47 116.159 441.473 114.533 440.586 113.967Z" fill="#DFE1EC"/>
<path id="Fill 94" fill-rule="evenodd" clip-rule="evenodd" d="M594.867 74.7067C587.988 72.113 582.411 67.815 579.015 62.4886L576.252 58.1538L574.065 61.8307C570.655 67.5621 564.755 72.1759 557.401 74.8551L552.461 76.6579L557.56 78.6507C563.691 81.0473 568.763 84.812 572.129 89.4639L576.252 95.1608L579.419 90.5019C582.573 85.8631 587.409 82.0449 593.326 79.5212L600.042 76.6579L594.867 74.7067Z" fill="#E8E9EB"/>
<path id="Fill 95" fill-rule="evenodd" clip-rule="evenodd" d="M614.177 44.3798C611.884 43.6389 610.025 42.41 608.894 40.888L607.973 39.6503L607.244 40.7006C606.108 42.3381 604.141 43.6564 601.69 44.4223L600.042 44.9376L601.742 45.5063C603.786 46.1916 605.477 47.2669 606.598 48.5961L607.973 50.2238L609.028 48.8935C610.079 47.5676 611.692 46.476 613.664 45.7558L615.903 44.9376L614.177 44.3798Z" fill="#E8E9EB"/>
<path id="Fill 96" fill-rule="evenodd" clip-rule="evenodd" d="M558.665 57.5966C556.373 56.8557 554.513 55.6279 553.382 54.1059L552.461 52.8671L551.732 53.9174C550.596 55.5549 548.629 56.8732 546.178 57.6391L544.531 58.1544L546.232 58.7242C548.274 59.4084 549.966 60.4837 551.087 61.8129L552.461 63.4406L553.516 62.1103C554.569 60.7844 556.18 59.6927 558.152 58.9726L560.391 58.1544L558.665 57.5966Z" fill="#E8E9EB"/>
<path id="Stroke 97" d="M563.664 98.8163C532.236 118.189 545.357 142.588 560.572 152.927" stroke="#E8E9EB"/>
</g>
</g>
</svg>
