<svg width="27" height="24" viewBox="0 0 27 24" fill="none" xmlns="http://www.w3.org/2000/svg">
<path d="M21.125 17.25V14.375C21.125 14.2083 21.0625 14.0625 20.9375 13.9375C20.8125 13.8125 20.6667 13.75 20.5 13.75C20.3333 13.75 20.1875 13.8125 20.0625 13.9375C19.9375 14.0625 19.875 14.2083 19.875 14.375V17.2188C19.875 17.3854 19.9063 17.5471 19.9688 17.7038C20.0313 17.8604 20.125 18.0008 20.25 18.125L22.125 20C22.25 20.125 22.3958 20.1875 22.5625 20.1875C22.7292 20.1875 22.875 20.125 23 20C23.125 19.875 23.1875 19.7292 23.1875 19.5625C23.1875 19.3958 23.125 19.25 23 19.125L21.125 17.25ZM14.25 2.5V6.25C14.25 6.60417 14.37 6.90125 14.61 7.14125C14.85 7.38125 15.1467 7.50084 15.5 7.5H23V2.5H14.25ZM20.5 23.75C18.7708 23.75 17.2967 23.1404 16.0775 21.9213C14.8583 20.7021 14.2492 19.2283 14.25 17.5C14.25 15.7708 14.8596 14.2967 16.0788 13.0775C17.2979 11.8583 18.7717 11.2492 20.5 11.25C22.2292 11.25 23.7033 11.8596 24.9225 13.0788C26.1417 14.2979 26.7508 15.7717 26.75 17.5C26.75 19.2292 26.1404 20.7033 24.9213 21.9225C23.7021 23.1417 22.2283 23.7508 20.5 23.75ZM3 20C2.3125 20 1.72375 19.755 1.23375 19.265C0.743752 18.775 0.499169 18.1867 0.500002 17.5V2.5C0.500002 1.8125 0.745002 1.22375 1.235 0.733752C1.725 0.243752 2.31334 -0.000831211 3 2.12224e-06H23C23.6875 2.12224e-06 24.2763 0.245002 24.7663 0.735002C25.2563 1.225 25.5008 1.81334 25.5 2.5V10.3438C24.7708 9.82292 23.9738 9.42709 23.1088 9.15625C22.2438 8.88542 21.3638 8.75 20.4688 8.75C18.0521 8.75 15.9946 9.60417 14.2963 11.3125C12.5979 13.0208 11.7492 15.0833 11.75 17.5C11.75 17.9375 11.7813 18.3646 11.8438 18.7813C11.9063 19.1979 12 19.6042 12.125 20H3Z" fill="#F8F8F8"/>
</svg>
