<svg width="19" height="21" viewBox="0 0 19 21" fill="none" xmlns="http://www.w3.org/2000/svg">
<path d="M5.72603 4.2C5.15342 4.2 4.66342 3.9942 4.256 3.5826C3.84789 3.1717 3.64384 2.6775 3.64384 2.1C3.64384 1.5225 3.84789 1.02795 4.256 0.61635C4.66342 0.20545 5.15342 0 5.72603 0C6.29863 0 6.78899 0.20545 7.1971 0.61635C7.60451 1.02795 7.80822 1.5225 7.80822 2.1C7.80822 2.6775 7.60451 3.1717 7.1971 3.5826C6.78899 3.9942 6.29863 4.2 5.72603 4.2ZM11.4521 18.9H4.73699C4.16438 18.9 3.63967 18.6945 3.16285 18.2836C2.68533 17.872 2.38584 17.3775 2.26438 16.8L0 5.25H2.13425L4.42466 16.8H11.4521V18.9ZM17.1781 21L14.1589 15.75H6.92329C6.42009 15.75 5.98214 15.5967 5.60942 15.2901C5.23602 14.9842 4.99726 14.5775 4.89315 14.07L3.74794 8.4525C3.55708 7.6125 3.75211 6.86875 4.33304 6.22125C4.91467 5.57375 5.62192 5.25 6.45479 5.25C7.0621 5.25 7.61319 5.43375 8.10805 5.80125C8.60223 6.16875 8.91872 6.6675 9.05753 7.2975L10.2027 12.6H13.5863C13.9507 12.6 14.289 12.6962 14.6014 12.8887C14.9137 13.0812 15.1653 13.335 15.3562 13.65L19 19.95L17.1781 21Z" fill="#104573"/>
</svg>
