<svg width="21" height="20" viewBox="0 0 21 20" fill="none" xmlns="http://www.w3.org/2000/svg">
<path d="M12.1784 20H8.33042C8.07389 20 7.85156 19.9167 7.66344 19.75C7.47532 19.5833 7.36416 19.375 7.32995 19.125L7.02212 16.8C6.79979 16.7167 6.59046 16.6167 6.39413 16.5C6.19712 16.3833 6.00455 16.2583 5.81643 16.125L3.58462 17.025C3.34519 17.1083 3.10576 17.1167 2.86633 17.05C2.62691 16.9833 2.43878 16.8417 2.30197 16.625L0.403648 13.4C0.266832 13.1833 0.224077 12.95 0.275383 12.7C0.326689 12.45 0.454954 12.25 0.660178 12.1L2.58415 10.675C2.56705 10.5583 2.5585 10.4457 2.5585 10.337V9.662C2.5585 9.554 2.56705 9.44167 2.58415 9.325L0.660178 7.9C0.454954 7.75 0.326689 7.55 0.275383 7.3C0.224077 7.05 0.266832 6.81667 0.403648 6.6L2.30197 3.375C2.42168 3.14167 2.60536 2.99567 2.853 2.937C3.10132 2.879 3.34519 2.89167 3.58462 2.975L5.81643 3.875C6.00455 3.74167 6.20122 3.61667 6.40645 3.5C6.61167 3.38333 6.81689 3.28333 7.02212 3.2L7.32995 0.875C7.36416 0.625 7.47532 0.416667 7.66344 0.25C7.85156 0.0833333 8.07389 0 8.33042 0H12.1784C12.4349 0 12.6572 0.0833333 12.8453 0.25C13.0335 0.416667 13.1446 0.625 13.1788 0.875L13.4867 3.2C13.709 3.28333 13.9187 3.38333 14.1157 3.5C14.312 3.61667 14.5042 3.74167 14.6924 3.875L16.9242 2.975C17.1636 2.89167 17.403 2.88333 17.6425 2.95C17.8819 3.01667 18.07 3.15833 18.2068 3.375L20.1051 6.6C20.242 6.81667 20.2847 7.05 20.2334 7.3C20.1821 7.55 20.0538 7.75 19.8486 7.9L17.9246 9.325C17.9417 9.44167 17.9503 9.554 17.9503 9.662V10.337C17.9503 10.4457 17.9332 10.5583 17.899 10.675L19.823 12.1C20.0282 12.25 20.1564 12.45 20.2078 12.7C20.2591 12.95 20.2163 13.1833 20.0795 13.4L18.1812 16.6C18.0444 16.8167 17.8521 16.9627 17.6045 17.038C17.3562 17.1127 17.1123 17.1083 16.8729 17.025L14.6924 16.125C14.5042 16.2583 14.3076 16.3833 14.1023 16.5C13.8971 16.6167 13.6919 16.7167 13.4867 16.8L13.1788 19.125C13.1446 19.375 13.0335 19.5833 12.8453 19.75C12.6572 19.9167 12.4349 20 12.1784 20ZM10.3057 13.5C11.2976 13.5 12.1442 13.1583 12.8453 12.475C13.5465 11.7917 13.8971 10.9667 13.8971 10C13.8971 9.03333 13.5465 8.20833 12.8453 7.525C12.1442 6.84167 11.2976 6.5 10.3057 6.5C9.29668 6.5 8.44569 6.84167 7.75272 7.525C7.06043 8.20833 6.71428 9.03333 6.71428 10C6.71428 10.9667 7.06043 11.7917 7.75272 12.475C8.44569 13.1583 9.29668 13.5 10.3057 13.5ZM10.3057 11.5C9.87815 11.5 9.5149 11.354 9.21596 11.062C8.91633 10.7707 8.76652 10.4167 8.76652 10C8.76652 9.58333 8.91633 9.22933 9.21596 8.938C9.5149 8.646 9.87815 8.5 10.3057 8.5C10.7333 8.5 11.0968 8.646 11.3965 8.938C11.6954 9.22933 11.8449 9.58333 11.8449 10C11.8449 10.4167 11.6954 10.7707 11.3965 11.062C11.0968 11.354 10.7333 11.5 10.3057 11.5ZM9.22828 18H11.2549L11.614 15.35C12.1442 15.2167 12.636 15.0207 13.0896 14.762C13.5424 14.504 13.957 14.1917 14.3332 13.825L16.8729 14.85L17.8733 13.15L15.6672 11.525C15.7527 11.2917 15.8125 11.0457 15.8467 10.787C15.8809 10.529 15.8981 10.2667 15.8981 10C15.8981 9.73333 15.8809 9.47067 15.8467 9.212C15.8125 8.954 15.7527 8.70833 15.6672 8.475L17.8733 6.85L16.8729 5.15L14.3332 6.2C13.957 5.81667 13.5424 5.49567 13.0896 5.237C12.636 4.979 12.1442 4.78333 11.614 4.65L11.2805 2H9.25393L8.89479 4.65C8.36462 4.78333 7.87311 4.979 7.42025 5.237C6.96671 5.49567 6.55181 5.80833 6.17557 6.175L3.63592 5.15L2.63546 6.85L4.84161 8.45C4.7561 8.7 4.69625 8.95 4.66204 9.2C4.62784 9.45 4.61074 9.71667 4.61074 10C4.61074 10.2667 4.62784 10.525 4.66204 10.775C4.69625 11.025 4.7561 11.275 4.84161 11.525L2.63546 13.15L3.63592 14.85L6.17557 13.8C6.55181 14.1833 6.96671 14.504 7.42025 14.762C7.87311 15.0207 8.36462 15.2167 8.89479 15.35L9.22828 18Z" fill="#396EB5"/>
</svg>
