<svg width="21" height="17" viewBox="0 0 21 17" fill="none" xmlns="http://www.w3.org/2000/svg">
<path d="M8.8725 12.2188C9.2925 12.6438 9.835 12.8516 10.5 12.8424C11.165 12.8339 11.655 12.5906 11.97 12.1125L16.4062 5.39219C16.5637 5.14427 16.5417 4.91867 16.3401 4.71537C16.1392 4.51137 15.9162 4.48906 15.6712 4.64844L9.03 9.1375C8.5575 9.45625 8.3083 9.94323 8.2824 10.5984C8.2558 11.2536 8.4525 11.7937 8.8725 12.2188ZM3.255 17C2.8875 17 2.5375 16.9115 2.205 16.7344C1.8725 16.5573 1.61 16.3094 1.4175 15.9906C0.9625 15.1937 0.6125 14.3484 0.3675 13.4544C0.1225 12.5598 0 11.6167 0 10.625C0 9.15521 0.2758 7.77821 0.8274 6.494C1.3783 5.2105 2.1308 4.08602 3.0849 3.12056C4.0383 2.15581 5.15375 1.39435 6.43125 0.836188C7.70875 0.278729 9.065 0 10.5 0C11.9525 0 13.3129 0.278729 14.5813 0.836188C15.8504 1.39435 16.9617 2.15581 17.9151 3.12056C18.8692 4.08602 19.6217 5.2105 20.1726 6.494C20.7242 7.77821 21 9.15521 21 10.625C21 11.6167 20.882 12.5506 20.6461 13.4268C20.4095 14.3037 20.055 15.1583 19.5825 15.9906C19.39 16.3094 19.1275 16.5573 18.795 16.7344C18.4625 16.9115 18.1125 17 17.745 17H3.255Z" fill="#104573"/>
</svg>
