<svg width="20" height="20" viewBox="0 0 20 20" fill="none" xmlns="http://www.w3.org/2000/svg">
<path d="M18.9369 6.69383L13.2816 6.18057L11.0733 0.742401C10.676 -0.247467 9.32059 -0.247467 8.92333 0.742401L6.71497 6.19279L1.07141 6.69383C0.0431826 6.77938 -0.377456 8.12364 0.405399 8.83244L4.69357 12.7186L3.40829 18.4867C3.1746 19.5377 4.26125 20.3687 5.14926 19.8065L9.99829 16.7514L14.8473 19.8188C15.7353 20.3809 16.822 19.5499 16.5883 18.4989L15.303 12.7186L19.5912 8.83244C20.374 8.12364 19.9651 6.77938 18.9369 6.69383ZM9.99829 14.4661L5.60496 17.2402L6.7734 12.0098L2.89418 8.49026L8.01194 8.02588L9.99829 3.10098L11.9963 8.0381L17.1141 8.50248L13.2349 12.022L14.4033 17.2524L9.99829 14.4661Z" fill="#396EB5"/>
</svg>
