<svg width="30" height="30" viewBox="0 0 30 30" fill="none" xmlns="http://www.w3.org/2000/svg">
<path fill-rule="evenodd" clip-rule="evenodd" d="M3 5.25C3 4.65326 3.23705 4.08097 3.65901 3.65901C4.08097 3.23705 4.65326 3 5.25 3H18.75C19.3467 3 19.919 3.23705 20.341 3.65901C20.7629 4.08097 21 4.65326 21 5.25V22.875C21 23.969 21.4346 25.0182 22.2082 25.7918C22.9818 26.5654 24.031 27 25.125 27H7.125C6.03098 27 4.98177 26.5654 4.20818 25.7918C3.4346 25.0182 3 23.969 3 22.875V5.25ZM8.625 15.75C8.32663 15.75 8.04048 15.8685 7.8295 16.0795C7.61853 16.2905 7.5 16.5766 7.5 16.875C7.5 17.1734 7.61853 17.4595 7.8295 17.6705C8.04048 17.8815 8.32663 18 8.625 18H15.375C15.6734 18 15.9595 17.8815 16.1705 17.6705C16.3815 17.4595 16.5 17.1734 16.5 16.875C16.5 16.5766 16.3815 16.2905 16.1705 16.0795C15.9595 15.8685 15.6734 15.75 15.375 15.75H8.625ZM8.625 20.25C8.32663 20.25 8.04048 20.3685 7.8295 20.5795C7.61853 20.7905 7.5 21.0766 7.5 21.375C7.5 21.6734 7.61853 21.9595 7.8295 22.1705C8.04048 22.3815 8.32663 22.5 8.625 22.5H15.375C15.6734 22.5 15.9595 22.3815 16.1705 22.1705C16.3815 21.9595 16.5 21.6734 16.5 21.375C16.5 21.0766 16.3815 20.7905 16.1705 20.5795C15.9595 20.3685 15.6734 20.25 15.375 20.25H8.625ZM7.5 8.625C7.5 8.32663 7.61853 8.04048 7.8295 7.8295C8.04048 7.61853 8.32663 7.5 8.625 7.5H15.375C15.6734 7.5 15.9595 7.61853 16.1705 7.8295C16.3815 8.04048 16.5 8.32663 16.5 8.625V12.375C16.5 12.6734 16.3815 12.9595 16.1705 13.1705C15.9595 13.3815 15.6734 13.5 15.375 13.5H8.625C8.32663 13.5 8.04048 13.3815 7.8295 13.1705C7.61853 12.9595 7.5 12.6734 7.5 12.375V8.625Z" fill="#F8F8F8"/>
<path d="M24.75 9.75H23.25V22.875C23.25 23.3723 23.4475 23.8492 23.7992 24.2008C24.1508 24.5525 24.6277 24.75 25.125 24.75C25.6223 24.75 26.0992 24.5525 26.4508 24.2008C26.8025 23.8492 27 23.3723 27 22.875V12C27 11.4033 26.7629 10.831 26.341 10.409C25.919 9.98705 25.3467 9.75 24.75 9.75Z" fill="#F8F8F8"/>
</svg>
