<svg width="53" height="53" viewBox="0 0 53 53" fill="none" xmlns="http://www.w3.org/2000/svg">
<path d="M26.4737 0.25C11.9837 0.25 0.25 12.01 0.25 26.5C0.25 40.99 11.9837 52.75 26.4737 52.75C40.99 52.75 52.75 40.99 52.75 26.5C52.75 12.01 40.99 0.25 26.4737 0.25ZM26.5 47.5C14.8975 47.5 5.5 38.1025 5.5 26.5C5.5 14.8975 14.8975 5.5 26.5 5.5C38.1025 5.5 47.5 14.8975 47.5 26.5C47.5 38.1025 38.1025 47.5 26.5 47.5ZM25.9225 13.375H25.765C24.715 13.375 23.875 14.215 23.875 15.265V27.655C23.875 28.5737 24.3475 29.44 25.1612 29.9125L36.055 36.4487C36.9475 36.9738 38.1025 36.7113 38.6275 35.8188C38.7593 35.6062 38.847 35.3693 38.8853 35.1221C38.9237 34.875 38.9119 34.6227 38.8506 34.3802C38.7894 34.1377 38.68 33.91 38.5289 33.7107C38.3778 33.5114 38.1882 33.3445 37.9713 33.22L27.8125 27.1825V15.265C27.8125 14.215 26.9725 13.375 25.9225 13.375Z" fill="black"/>
</svg>
